<svg width="238" height="100" fill="none" xmlns="http://www.w3.org/2000/svg"><g clip-path="url(#clip0)" fill="#B28E69"><path d="M134.061 0h-12.696v24.902h4.786V1.486l7.242.033c8.407.682 13.855 7.455 13.855 17.232 0 8.28-3.809 14.586-9.936 16.451l-.276.088a15.668 15.668 0 01-5.012.798c-2.528.05-10.278 0-10.361 0h-.314v1.486H135.7c2.339.03 4.659-.407 6.825-1.284a17.507 17.507 0 005.788-3.828c3.445-3.494 5.283-8.473 5.183-14.03C153.314 7.934 144.957 0 134.061 0zM89.687 5.09c-3.44 3.488-5.283 8.467-5.183 14.024.182 10.526 8.539 18.46 19.435 18.46h12.696V12.72h-4.786v23.367l-7.242-.038c-8.28-.677-13.877-7.77-13.877-17.646 0-8.286 3.809-14.591 9.936-16.456a11.466 11.466 0 013.168-.462c3.097-.033 12.387 0 12.481 0h.314V0h-14.351a17.576 17.576 0 00-6.81 1.279 17.53 17.53 0 00-5.781 3.81zM41.399 53.623c-6.68 0-11.713 4.693-11.713 10.922 0 6.228 5.05 10.921 11.713 10.921 6.662 0 11.669-4.693 11.669-10.921 0-6.229-5.001-10.922-11.67-10.922zm0 20.908c-4.56 0-7.866-4.193-7.866-9.97 0-5.777 3.323-9.98 7.866-9.98 4.543 0 7.816 4.192 7.816 9.964 0 5.771-3.268 9.97-7.816 9.97v.016zm31.519-20.908c-6.68 0-11.714 4.693-11.714 10.922 0 6.228 5.035 10.921 11.714 10.921 6.678 0 11.668-4.693 11.668-10.921 0-6.229-5.017-10.922-11.668-10.922zm0 20.908c-4.56 0-7.866-4.193-7.866-9.97 0-5.777 3.312-9.964 7.865-9.964 4.554 0 7.817 4.192 7.817 9.964s-3.29 9.953-7.816 9.953v.017zM101.88 53.92h-7.888v21.31h8.915c6.552 0 11.133-4.308 11.133-10.482 0-6.3-5.117-10.828-12.16-10.828zm1.027 20.22h-5.206V54.977h4.168c4.968 0 8.307 3.934 8.307 9.788.011 5.507-2.98 9.348-7.269 9.348v.027zm24.304-9.27h11.431v-1.09h-11.431v-8.803h12.458v-1.084h-16.173v21.31h16.482v-1.09h-12.767v-9.244zm30.74-1.552c-4.129-1.733-6.624-2.751-6.624-5.293 0-2.157 1.711-3.444 4.571-3.444 3.052 0 4.967 1.843 5.061 4.83h3.71c-.138-3.895-2.954-5.788-8.589-5.788-5.482 0-8.379 1.893-8.379 5.47 0 3.46 2.804 4.714 6.684 6.459h.055c5.101 2.25 7.011 3.097 7.011 5.397 0 2.2-1.855 3.582-4.841 3.582-3.539 0-5.769-2.052-5.857-5.37H147c.276 4.165 3.46 6.278 9.477 6.278 5.763 0 8.688-1.838 8.688-5.47 0-3.058-2.125-4.467-7.214-6.651zm20.341-9.425h-3.715v21.31h3.715v-21.31zm58.571 0v16.165l-16.532-16.165h-1.264v21.31h1.137V59.031l16.537 16.17H238v-21.31h-1.137zM19.06 65.7h-7.396v.919h7.727c-.69 4.688-3.742 7.895-7.661 7.895-4.554 0-7.866-4.192-7.866-9.97 0-5.776 3.312-9.963 7.85-9.963 3.537 0 6.446 2.635 7.445 6.728h3.737c-1.424-4.676-5.784-7.702-11.183-7.702C5.034 53.623 0 58.322 0 64.545c0 6.222 5.034 10.921 11.713 10.921 6.072 0 10.913-4.005 11.592-9.557l.033-.209H19.06zm187.019 0h-7.397v.919h7.728c-.685 4.688-3.743 7.895-7.662 7.895-4.554 0-7.865-4.192-7.865-9.97 0-5.776 3.311-9.963 7.865-9.963 3.539 0 6.448 2.635 7.447 6.728h3.737c-1.425-4.676-5.785-7.702-11.184-7.702-6.679 0-11.713 4.698-11.713 10.921 0 6.223 5.034 10.922 11.713 10.922 6.072 0 10.913-4.006 11.592-9.557l.033-.21-4.294.017zM45.031 95.153a3.383 3.383 0 01.947-2.398 3.405 3.405 0 012.365-1.041 3.204 3.204 0 012.351 1.007l-.452.396a2.662 2.662 0 00-1.899-.809 2.768 2.768 0 00-1.946.86 2.75 2.75 0 00-.753 1.985 2.742 2.742 0 00.763 1.966 2.76 2.76 0 001.936.85 2.64 2.64 0 001.899-.808l.453.407a3.208 3.208 0 01-2.352.996 3.378 3.378 0 01-2.363-1.023 3.356 3.356 0 01-.949-2.388zm15.163-2.718H58.07v6.052h-.635v-6.052H55.32v-.606h4.874v.606zm10.112-.605l-3.438 6.602h-.707l1.104-2.13-2.589-4.49h.723l2.208 3.852 1.976-3.851.724.016zm9.312 6.024V100h-.634v-1.552h-4.35V100H74v-2.146h.1c.7 0 1.026-.605 1.164-1.865l.436-4.16h3.4v6.025h.52zm-4.26 0h3.118v-5.42h-2.17l-.408 3.577a3.59 3.59 0 01-.54 1.843zm14.218-6.024v6.602h-.634V92.93l-3.412 5.502h-.645v-6.603h.634v5.503l3.395-5.503h.662zm9.666 0v6.602h-.635V95.84h-1.104l-1.832 2.592h-.773l1.832-2.58c-1.297 0-1.86-1.024-1.86-2.02s.552-2.02 1.921-2.02l2.45.017zm-.635 3.438v-2.833h-1.855a1.273 1.273 0 00-1.223.891 1.27 1.27 0 00-.046.534 1.29 1.29 0 00.864 1.356 1.3 1.3 0 00.571.063l1.69-.01zm17.525-3.438v6.602h-.64V92.93l-3.411 5.502h-.646v-6.603h.618v5.503l3.395-5.503h.684zm10.588 0v6.602h-.635v-3.004h-3.654v3.004h-.635v-6.603h.635v3.049h3.654v-3.049h.635zm9.886.605h-2.12v6.052h-.635v-6.052h-2.114v-.606h4.869v.606zm8.914 5.419v.594h-3.891v-6.602h3.786v.589h-3.163v2.481h2.76v.594h-2.76v2.355l3.268-.01zm9.682-4.005c0 1.029-.552 2.019-1.932 2.019h-1.943v2.58h-.635v-6.602h2.617c1.352-.017 1.893.985 1.893 2.003zm-.64 0a1.26 1.26 0 00-.744-1.316 1.272 1.272 0 00-.526-.11h-1.965v2.845h1.916a1.276 1.276 0 001.26-.878c.057-.174.075-.36.053-.541h.006zm10.123 2.586a1.96 1.96 0 01-2.092 2.013h-2.296v-6.602h.635v2.597h1.656a1.97 1.97 0 011.946 1.2c.105.25.156.52.151.792zm-.635 0a1.372 1.372 0 00-.414-1.032 1.392 1.392 0 00-1.043-.393h-1.656v2.844h1.656a1.4 1.4 0 001.039-.393 1.378 1.378 0 00.418-1.026zm9.611 1.419v.594h-3.892v-6.602h3.787v.589h-3.163v2.481h2.76v.594h-2.76v2.355l3.268-.01zm9.681-4.005c0 1.029-.552 2.019-1.926 2.019h-1.949v2.58h-.623v-6.602h2.611c1.347-.017 1.887.985 1.887 2.003zm-.634 0a1.27 1.27 0 00-1.275-1.425h-1.966v2.844h1.921a1.283 1.283 0 001.264-.877c.057-.175.076-.36.056-.542zm8.931 2.844h-3.064l-.668 1.755h-.673l2.533-6.602h.668l2.523 6.602h-.662l-.657-1.755zm-.221-.55l-1.314-3.46-1.325 3.444 2.639.016z"/></g><defs><clipPath id="clip0"><path fill="#fff" d="M0 0h238v100H0z"/></clipPath></defs></svg>