<svg width="1600" height="507" fill="none" xmlns="http://www.w3.org/2000/svg"><path fill-rule="evenodd" clip-rule="evenodd" d="M.01 65.242l67-6.851c66.001-6.851 200-20.554 333-25.121 133-4.568 267 0 400 11.418 133 11.42 267 29.69 400 25.122 133-4.568 267-31.973 333-45.675l67-13.703v249.214H.01V65.242z" fill="#FFD9B5"/><path fill-rule="evenodd" clip-rule="evenodd" d="M.011 111.505l67-13.938c66-13.938 200-41.814 333-51.106 132.999-9.293 266.999 0 399.999 23.23s267 60.398 400 51.106c133-9.292 267-65.044 333-92.92l67-27.877v507H.011V111.505z" fill="#FE8F22"/></svg>