<svg width="150" height="50" fill="none" xmlns="http://www.w3.org/2000/svg"><path d="M71.562 23.186c0-.432-.041-.863-.123-1.295a2.743 2.743 0 00-.53-1.157c-.266-.334-.653-.628-1.163-.844-.51-.216-1.184-.373-2.02-.412-.47 0-1.041.02-1.674.04-.653.039-1.367.137-2.142.313v6.532h3.489a5.85 5.85 0 001.571-.215c.49-.138.918-.354 1.306-.648.388-.274.673-.627.918-1a3.52 3.52 0 00.368-1.314zm-3.694-5.826c1.918.117 3.347.686 4.285 1.726.939 1.04 1.408 2.432 1.408 4.217 0 .726-.163 1.413-.49 2.04a5.279 5.279 0 01-1.346 1.648 6.2 6.2 0 01-1.98 1.099c-.755.274-1.53.392-2.367.392H63.89v4.315h-2.224V19.93c-.286-.02-.551-.04-.816-.079a3.567 3.567 0 01-.755-.196v-2.06a9.611 9.611 0 002.04.236c.429 0 .857-.02 1.286-.079.408-.04.836-.098 1.245-.137.428-.079.877-.137 1.285-.177.429-.039.877-.059 1.367-.059h.551v-.02zm14.753 4.982c-.53 0-1.02.059-1.51.196s-.918.334-1.285.589a3.138 3.138 0 00-.939.98c-.245.393-.387.883-.449 1.432l1.368-.059c.285.04.632.06 1.06.06.409 0 .817.019 1.205.019.347 0 .673-.02 1.02-.059.347-.04.632-.118.898-.235a1.75 1.75 0 00.632-.49c.163-.216.245-.471.245-.805 0-.588-.224-1-.673-1.236-.49-.274-1-.392-1.572-.392zm4.102 9.18c-.592.412-1.285.765-2.081 1.079-.796.314-1.694.47-2.714.47a7.137 7.137 0 01-2.286-.352 5.55 5.55 0 01-1.816-1c-.51-.432-.918-.982-1.244-1.629a5.477 5.477 0 01-.51-2.216v-.118c-.266.04-.552.059-.817.059-.285 0-.55.058-.816.157v-2.217c.286-.078.571-.137.837-.137.265-.02.55-.04.836-.079.041-.784.245-1.49.551-2.138a5.618 5.618 0 011.286-1.687 5.694 5.694 0 011.918-1.098 7.515 7.515 0 012.448-.392c.96 0 1.837.196 2.612.607a4.273 4.273 0 011.47 1.334c.387.57.591 1.217.591 1.923 0 .745-.265 1.451-.775 2.099-.53.686-1.184 1.118-1.939 1.333a9.697 9.697 0 01-2.448.314c-.388 0-.837-.02-1.347-.059-.51-.039-.98-.039-1.408-.039-.122 0-.224 0-.326.02-.103.02-.205.02-.286.04v.117c0 .96.326 1.687 1 2.177.673.49 1.49.745 2.49.745.51 0 .979-.039 1.407-.117a7.968 7.968 0 001.224-.334 6.97 6.97 0 001.102-.51 30.02 30.02 0 001.061-.627v2.275h-.02zm14.08-10.906v12.162h-2.286v-8.513l-6.754 8.532h-2.142V20.616h2.285v8.513l6.754-8.513h2.143zm14.671-.059v12.24h-2.326V27.62h-6.51v5.178h-2.305v-12.24h2.305v4.806h6.51v-4.806h2.326zm14.222 10.494a3.66 3.66 0 001.51-.313c.49-.216.919-.49 1.266-.844.367-.353.653-.765.877-1.255a3.51 3.51 0 00.326-1.53c0-.471-.102-.942-.285-1.413a4.587 4.587 0 00-.776-1.275 3.745 3.745 0 00-1.224-.902c-.469-.235-1.02-.333-1.592-.333-.367 0-.693.039-.999.137-.286.098-.592.196-.898.314v7.003c.53.274 1.122.411 1.795.411zm-9.713-3.942c0 .53.102 1.02.307 1.49.204.471.489.883.836 1.236s.776.648 1.265.863c.49.216 1 .334 1.572.334.612 0 1.203-.118 1.734-.334v-7.061a3.984 3.984 0 00-1.816-.432c-.531 0-1.02.098-1.49.314a4.44 4.44 0 00-1.244.844 3.925 3.925 0 00-.837 1.255 3.44 3.44 0 00-.327 1.49zm11.693-5.767c.632.196 1.204.47 1.714.843s.959.824 1.326 1.334c.367.51.674 1.079.878 1.687.204.608.326 1.236.326 1.864a5.95 5.95 0 01-.469 2.314c-.306.745-.755 1.393-1.306 1.981a6.077 6.077 0 01-1.98 1.373 5.998 5.998 0 01-2.448.51 4.62 4.62 0 01-.918-.078 7.059 7.059 0 01-.878-.196v4.04h-2.224v-4.02a6.586 6.586 0 01-1.734.235 5.741 5.741 0 01-2.367-.49 6.442 6.442 0 01-1.98-1.334 6.188 6.188 0 01-1.347-1.982 5.946 5.946 0 01-.51-2.393c0-.608.102-1.196.286-1.804.204-.608.469-1.158.857-1.668.367-.51.816-.96 1.326-1.373a5.92 5.92 0 011.755-.922 5.59 5.59 0 011.714-.274c.327 0 .633.02.959.078.327.059.653.118 1.021.196v-3.138h2.224l-.021 3.158a6.655 6.655 0 011.857-.275c.572.079 1.225.157 1.939.334zm11.611 1.118a4.51 4.51 0 00-1.715.334 4.7 4.7 0 00-1.408.882 4.19 4.19 0 00-.959 1.315c-.244.51-.346 1.04-.346 1.628a3.9 3.9 0 00.346 1.628c.245.51.551.941.959 1.334a4.3 4.3 0 001.408.902 4.595 4.595 0 001.715.333c.612 0 1.183-.117 1.714-.333a4.09 4.09 0 001.387-.902c.388-.373.714-.824.939-1.334.224-.51.347-1.04.347-1.628 0-.589-.123-1.119-.347-1.628a3.845 3.845 0 00-.939-1.315 4.357 4.357 0 00-1.387-.882 4.515 4.515 0 00-1.714-.334zm0 0a4.51 4.51 0 00-1.715.334 4.7 4.7 0 00-1.408.882 4.19 4.19 0 00-.959 1.315c-.244.51-.346 1.04-.346 1.628a3.9 3.9 0 00.346 1.628c.245.51.551.941.959 1.334a4.3 4.3 0 001.408.902 4.595 4.595 0 001.715.333c.612 0 1.183-.117 1.714-.333a4.09 4.09 0 001.387-.902c.388-.373.714-.824.939-1.334.224-.51.347-1.04.347-1.628 0-.589-.123-1.119-.347-1.628a3.845 3.845 0 00-.939-1.315 4.357 4.357 0 00-1.387-.882 4.515 4.515 0 00-1.714-.334zm0 10.593a6.794 6.794 0 01-2.612-.51 6.75 6.75 0 01-3.592-3.433 6.168 6.168 0 010-5.002 6.393 6.393 0 011.449-2.04c.612-.589 1.326-1.04 2.143-1.393a6.867 6.867 0 012.612-.51c.918 0 1.775.177 2.591.51a6.77 6.77 0 012.143 1.393 6.716 6.716 0 011.448 2.04c.347.784.531 1.608.531 2.51 0 .883-.184 1.707-.531 2.492a6.39 6.39 0 01-1.448 2.04c-.613.588-1.327 1.04-2.143 1.392a6.767 6.767 0 01-2.591.51zm0 0a6.794 6.794 0 01-2.612-.51 6.75 6.75 0 01-3.592-3.433 6.168 6.168 0 010-5.002 6.393 6.393 0 011.449-2.04c.612-.589 1.326-1.04 2.143-1.393a6.867 6.867 0 012.612-.51c.918 0 1.775.177 2.591.51a6.77 6.77 0 012.143 1.393 6.716 6.716 0 011.448 2.04c.347.784.531 1.608.531 2.51 0 .883-.184 1.707-.531 2.492a6.39 6.39 0 01-1.448 2.04c-.613.588-1.327 1.04-2.143 1.392a6.767 6.767 0 01-2.591.51z" fill="#161616"/><path d="M26.037 23.225h.123c.49-.02.98-.079 1.448-.177a2.82 2.82 0 00.388-.098 8.488 8.488 0 001.286-.47 7.73 7.73 0 003.775-3.708c-.02 0-.041.02-.062.02a6.57 6.57 0 00-.836.411c-.02.02-.041.04-.082.04-.285.157-.53.353-.775.549a6.062 6.062 0 01-.939.961 6.633 6.633 0 01-1.898 1.079l-.163.059c-.081.02-.183.059-.265.078l-.04.02a7.954 7.954 0 01-1.572.255h-.102c-.204.02-.429.02-.653.02 0 .02.02.058.02.078.082.275.143.55.204.844 0 .02.02.039.02.058.042-.02.082-.02.123-.02z" fill="#91BB16"/><path d="M24.14 21.989c.142.392.265.784.346 1.196.02.079.02.157.041.236l.02.117c.082.49.123.942.123 1.393v.118a9.955 9.955 0 011.265-.098c0-.118 0-.236-.02-.373 0-.078 0-.157-.02-.235-.021-.216-.041-.452-.082-.687l-.02-.098v-.02c-.021-.078-.021-.157-.041-.215a11.2 11.2 0 00-.286-1.119c-.96-3-3.428-5.315-6.591-6.218.02.177.04.334.061.51 0 .04.02.098.02.138.041.235.103.45.164.686 2.428.863 4.203 2.511 5.02 4.669z" fill="#FB3439"/><path d="M28.853 24.873v-.256c-.143.04-.285.08-.428.118-.041 0-.062.02-.102.02l-.49.118v.255c.02.47.082.941.184 1.392.02.118.06.255.102.373.122.412.285.843.49 1.236a7.622 7.622 0 003.856 3.648c0-.02-.02-.039-.02-.059a9.99 9.99 0 00-.409-.804.147.147 0 01-.04-.078 6.449 6.449 0 00-.551-.746 8.4 8.4 0 01-1.082-.98 5.998 5.998 0 01-1.06-1.805l-.062-.157c-.02-.098-.061-.177-.082-.255l-.02-.04a7.095 7.095 0 01-.265-1.51v-.098c0-.078-.02-.215-.02-.372z" fill="#22BDED"/><path d="M20.18 19.733a6.601 6.601 0 01-.979-1.726l-.04-.157c-.041-.137-.103-.274-.143-.431v-.04c-.143-.49-.225-1-.266-1.49v-.099c-.02-.176-.02-.353-.02-.49 0-1.667.653-3.295 1.816-4.59 1.102-1.216 2.55-2 3.959-2.158a24.513 24.513 0 012.693-.137c.939 0 1.653.059 2 .078-.408-.294-1.53-.98-3.408-.98-.224 0-.47.02-.714.039-3.02.275-7.223 2.844-7.223 7.768v.353c.02.51.06.96.142 1.373l.123.53v.039c.122.431.265.843.428 1.236.776 1.726 2.184 3.06 3.98 3.785 0-.02-.021-.039-.021-.059a7.157 7.157 0 00-.327-.686c-.02-.02-.02-.04-.04-.079-.123-.235-.286-.45-.429-.647l-.02-.02a7.226 7.226 0 01-1.51-1.412z" fill="#91BB16"/><path d="M31.18 19.694c.571-.47 1.244-.843 1.979-1.137l.163-.06c.143-.058.306-.097.45-.156h.02a9.214 9.214 0 011.57-.294h.103c.224-.02.428-.02.632-.02 1.735 0 3.428.628 4.775 1.746 1.265 1.059 2.082 2.452 2.245 3.805.245 2.177.122 3.904.061 4.512.347-.451 1.184-1.746.98-3.963-.266-2.863-2.939-6.904-8.06-6.904-.103 0-.205 0-.307.02h-.163c-.53.019-1 .078-1.428.156-.204.04-.429.098-.592.137a10.22 10.22 0 00-1.306.452c-1.714.745-3 2.02-3.755 3.648.062-.02.123-.059.204-.078.062-.02.123-.06.204-.079.103-.039.184-.098.286-.137.061-.04.123-.059.163-.098l.306-.177a.333.333 0 01.143-.078c.143-.098.286-.196.408-.314.245-.353.572-.687.919-.98z" fill="#22BDED"/><path d="M20.691 30.404a7.144 7.144 0 01-1.918 1.04l-.163.058a2.968 2.968 0 01-.449.138h-.04a8.508 8.508 0 01-1.572.274h-.102c-.184.02-.367.02-.551.02a7.503 7.503 0 01-4.775-1.746c-1.265-1.06-2.081-2.452-2.244-3.805-.245-2.178-.123-3.904-.062-4.512-.347.451-1.183 1.746-.98 3.962.307 2.884 2.98 6.925 8.102 6.925h.367c.53-.02 1-.06 1.428-.138.204-.039.388-.078.572-.137.47-.118.898-.255 1.306-.431 1.734-.746 3.101-2.04 3.856-3.688-.02 0-.04.02-.06.02a8.502 8.502 0 00-.756.333c-.02.02-.04.02-.061.04a8.71 8.71 0 00-.714.45h-.02c-.307.432-.715.824-1.164 1.197zm-4.775-14.829h-.183c-3.694 0-6.469.569-8.285.941-.918.177-1.49.314-2.653.373-1.142.02-3.142-.196-4.795-.373 1.775 1.354 2.796 1.334 4.612 1.413.285 0 .55 0 .795-.02.755-.04 1.674-.216 2.755-.432 1.98-.372 4.469-.843 7.366-.784.184 0 .347.02.531.02v-.06a8.591 8.591 0 01-.082-1.02v-.058h-.06z" fill="#FB3439"/><path d="M17.895 18.713a7.511 7.511 0 01-.408-1.196c-.061-.197-.081-.393-.122-.57a9.473 9.473 0 01-.163-1.353v-.137c0-.098-.02-.196-.02-.314 0-2.04.795-4.04 2.223-5.63 1.347-1.51 3.122-2.471 4.857-2.648a30.818 30.818 0 013.305-.157c1.225 0 2.123.06 2.51.099-.469-.354-1.877-1.236-4.244-1.236-.286 0-.592.02-.877.039-3.673.314-8.856 3.492-8.856 9.533v.314c.02.432.04.843.102 1.275l.02.079.02.078c.02.137.041.294.062.431.06.354.163.687.265 1.04.939 3.04 3.285 5.277 6.407 6.14-.02-.177-.04-.353-.061-.51 0-.04 0-.098-.02-.157a6.451 6.451 0 00-.143-.667c-2.224-.687-3.959-2.276-4.857-4.453z" fill="#91BB16"/><path d="M16.08 17.439h-.205c-3.04 0-5.346.353-6.876.588-2.184.333-3.734.55-5.693.373 1.673.784 2.367.725 4.244.608.571-.04 1.245-.138 2.02-.236 1.633-.215 3.694-.51 6.162-.47.205 0 .43.02.674.039 0-.02 0-.04-.02-.06-.082-.274-.143-.529-.204-.784 0-.02-.02-.039-.02-.058h-.083z" fill="#FB3439"/><path d="M27.915 28.05a7.236 7.236 0 01-.368-1.196c-.02-.079-.02-.157-.04-.235 0-.04-.02-.079-.02-.118a8.378 8.378 0 01-.123-1.393v-.157l-.551.059h-.082a6.7 6.7 0 01-.632.04c0 .117.02.254.02.392 0 .078 0 .157.02.235.02.216.041.451.082.686l.02.079v.04c0 .058.02.137.041.195.061.373.163.746.286 1.118.98 3.002 3.346 5.218 6.489 6.14l-.061-.49c0-.06-.02-.118-.02-.177-.042-.235-.103-.47-.164-.706-2.367-.824-4.081-2.432-4.897-4.512z" fill="#22BDED"/><path d="M24.16 24.99v-.118a7.662 7.662 0 00-.183-1.392 2.289 2.289 0 00-.102-.353 10.005 10.005 0 00-.45-1.236c-.816-1.707-2.224-3.04-4.02-3.786.062.157.144.333.225.49.041.098.082.177.123.275.142.275.326.53.51.765a6.534 6.534 0 011.55 1.412c.409.51.715 1.08.94 1.687l.06.138c.02.078.041.157.062.215l.02.06c.122.47.204.96.245 1.49v.137c0 .098.02.216.02.314 0 .079 0 .157-.02.235v.04c.02 0 .061-.02.082-.02.285-.078.57-.157.877-.196.02 0 .04-.02.061-.02v-.137z" fill="#FB3439"/><path d="M35.73 15.32v-.196c0-3.55-.592-6.219-.98-7.964-.184-.883-.347-1.57-.367-2.08-.061-1.432.286-4.55.347-5.08-1.43 2.197-1.45 3.57-1.43 5.218.041.726.225 1.608.45 2.648.387 1.903.877 4.276.816 7.081 0 .196-.02.373-.02.569h.08c.327-.04.674-.079 1.041-.079h.062v-.117z" fill="#91BB16"/><path d="M19.507 32.719a9.535 9.535 0 01-1.265.412c-.204.039-.387.078-.591.117-.45.079-.919.138-1.409.157h-.102c-.122 0-.244.02-.367.02a9.203 9.203 0 01-5.856-2.138c-1.571-1.295-2.571-3.001-2.755-4.669a27.984 27.984 0 01-.061-5.59c-.408.51-1.51 2.138-1.245 4.923.327 3.531 3.632 8.514 9.917 8.514h.347c.449-.02.898-.04 1.326-.099l.082-.02h.061c.164-.019.306-.038.47-.058.367-.059.714-.157 1.101-.255 3.122-.902 5.428-3.119 6.346-6.061l-.49.059c-.06 0-.142.02-.203.02-.245.038-.47.078-.694.137-.775 2.04-2.408 3.668-4.612 4.53z" fill="#FB3439"/><path d="M32.424 17.281a8.655 8.655 0 011.266-.412c.204-.059.387-.078.591-.118.47-.078.939-.137 1.408-.176h.082c.163 0 .306-.02.47-.02 2.121 0 4.203.765 5.856 2.138 1.57 1.295 2.57 3.002 2.754 4.669a28.01 28.01 0 01.062 5.59c.408-.51 1.51-2.138 1.244-4.923-.326-3.531-3.632-8.513-9.917-8.513-.081 0-.163 0-.265.02h-.183c-.45.019-.898.058-1.327.117l-.082.02c-.163.02-.347.039-.51.078a8.253 8.253 0 00-1.102.275c-3.08.922-5.366 3.138-6.264 6.08l.51-.058c.061 0 .122-.02.184-.02.244-.04.469-.098.693-.157.776-2.08 2.367-3.707 4.53-4.59z" fill="#22BDED"/><path d="M22.854 26.814a7.855 7.855 0 011.245-.333c.082-.02.163-.02.245-.04l.102-.02a9.42 9.42 0 011.449-.117h.143c-.02-.196-.062-.392-.062-.569v-.059c-.02-.196-.02-.392-.04-.588-.164 0-.307.02-.47.02h-.143c-.224.02-.47.039-.714.078l-.082.02h-.04c-.082.02-.143.02-.225.039a8.33 8.33 0 00-1.163.274c-3.081.922-5.489 3.257-6.428 6.258l.53-.06c.042 0 .103-.019.144-.019.245-.039.49-.098.714-.157.898-2.275 2.612-3.962 4.795-4.727z" fill="#FE8F22"/><path d="M25.997 26.775h-.123c-.49.02-.98.078-1.449.176a2.82 2.82 0 00-.387.098 8.366 8.366 0 00-1.286.452 7.728 7.728 0 00-3.857 3.746c.02 0 .041-.02.062-.02.265-.117.55-.235.796-.372.02-.02.04-.04.081-.04.265-.156.51-.313.735-.49 0 0 .02 0 .02-.02a6.725 6.725 0 011.184-1.196 5.921 5.921 0 011.326-.765c.163-.078.326-.137.49-.196l.163-.059c.082-.02.184-.059.265-.078h.041a6.726 6.726 0 011.571-.236h.143c.204-.02.408-.02.612 0h.02c0-.02-.02-.059-.02-.078-.081-.294-.163-.569-.224-.863 0-.02 0-.02-.02-.04-.062-.02-.103-.02-.143-.02z" fill="#FE8F22"/><path d="M33.791 15.535c0-.078.02-.176.02-.255 0-2.922-.366-5.139-.611-6.61-.123-.687-.204-1.236-.225-1.648-.265-1.294-.142-3.413-.163-3.825-.836 1.51-.694 3.08-.633 4.08.041.55.143 1.197.245 1.942.225 1.57.53 3.531.49 5.905 0 .215-.02.45-.04.725.02 0 .06-.02.08-.02.287-.078.552-.137.817-.196.02 0 .04 0 .04-.02-.02-.019-.02-.058-.02-.078zm-4.611 7.631a9.476 9.476 0 01-1.245.353c-.081.02-.143.02-.224.04-.041 0-.082.02-.123.02-.49.078-.959.117-1.448.136h-.122c.04.216.06.412.06.609v.039c.02.196.02.372.02.569.143 0 .286-.02.43-.02.08 0 .142 0 .224-.02.224-.02.469-.039.694-.078l.081-.02h.061c.061 0 .143-.02.204-.02a7.846 7.846 0 001.163-.294c3.102-.96 5.408-3.236 6.346-6.257l-.49.059c-.06.02-.122.02-.183.02a4.21 4.21 0 00-.714.176c-.918 2.236-2.591 3.904-4.734 4.688z" fill="#91BB16"/><path d="M36.056 34.406c.082 0 .143.02.225.02 3.693 0 6.468-.57 8.284-.942.919-.177 1.47-.275 2.163-.353 1.653-.079 3.632-.04 5.285.333-1.387-1.079-2.795-1.412-4.611-1.412-.286 0-.551 0-.796.02-.755.039-1.674.215-2.755.43-1.877.354-4.244.805-6.979.805h-.387c-.184 0-.388-.02-.612-.04v.08c.04.333.081.666.081 1.02v.058c.041-.039.061-.02.102-.02z" fill="#22BDED"/><path d="M35.607 32.6c-.06-.352-.163-.686-.265-1.058-.939-2.982-3.244-5.179-6.285-6.062.02.177.041.334.061.51 0 .06.02.118.02.157.042.236.103.452.164.667 2.143.746 3.836 2.295 4.734 4.394.184.432.327.824.429 1.216l.122.53v.04c.082.45.143.901.163 1.353v.117c0 .118.02.255.02.373 0 2.04-.795 4.04-2.224 5.63-1.346 1.51-3.122 2.471-4.856 2.648a30.818 30.818 0 01-3.306.157c-1.204 0-2.122-.079-2.51-.098.47.353 1.878 1.236 4.245 1.236.285 0 .592-.02.877-.04 3.673-.314 8.856-3.491 8.856-9.533v-.373c-.02-.431-.04-.863-.102-1.275l-.02-.078v-.04c-.061-.156-.082-.313-.123-.47zm-19.405 2.06v.216c0 3.55.591 6.218.98 7.964.183.883.346 1.57.366 2.08.245 1.961-.285 4.55-.346 5.08 1.55-2.236 1.55-3.668 1.448-5.218-.04-.726-.224-1.608-.449-2.648-.387-1.903-.877-4.296-.816-7.081 0-.196.02-.412.02-.589h-.081c-.347.04-.694.06-1.04.079h-.062c-.02.059-.02.078-.02.117z" fill="#FE8F22"/><path d="M35.832 32.523c.102 0 .183.02.285.02 3.04 0 5.347-.354 6.877-.59.714-.117 1.286-.195 1.714-.215 1.449-.235 3.55-.137 3.98-.157-1.144-.412-1.123-.49-2.348-.667-.734 0-1.387.02-1.897.059-.572.04-1.245.137-2.02.235-1.633.216-3.694.49-6.163.471-.245 0-.49-.02-.775-.04 0 .02.02.06.02.08.082.274.143.529.204.803 0 .02 0 .02.02.04.041-.04.082-.04.103-.04z" fill="#22BDED"/><path d="M31.547 30.032a6.815 6.815 0 011.142 1.883l.062.157c.06.137.102.294.142.431l.02.04c.144.51.246 1.02.287 1.51v.098c.02.196.02.373.02.55 0 1.666-.653 3.295-1.816 4.59-1.102 1.215-2.55 2-3.959 2.157-.898.098-1.796.137-2.693.137-.939 0-1.653-.059-2-.078.408.294 1.53.98 3.408.98.224 0 .469-.019.714-.039 2.979-.255 7.183-2.824 7.183-7.748 0-.098 0-.176-.02-.274v-.138a8.679 8.679 0 00-.144-1.373 5.8 5.8 0 00-.142-.569 8.686 8.686 0 00-.47-1.275c-.775-1.667-2.081-2.922-3.795-3.648.02.059.04.118.081.176.02.06.062.138.082.197.04.098.102.176.143.255.04.058.061.117.102.176.061.098.122.196.184.275.02.039.06.098.081.137.102.137.204.255.306.392a6.39 6.39 0 011.082 1zM18.14 34.464c0 .079-.02.177-.02.275 0 2.922.367 5.139.612 6.61.123.687.204 1.236.225 1.648.367 1.334.142 3.413.163 3.825.836-1.844.694-2.982.632-4.08-.04-.55-.142-1.197-.244-1.942-.225-1.57-.531-3.53-.49-5.904 0-.216.02-.452.04-.726-.02 0-.04 0-.06.02-.286.078-.552.137-.837.196-.02 0-.041.02-.061.02.04 0 .04.019.04.058z" fill="#FE8F22"/></svg>