<svg width="244" height="82" fill="none" xmlns="http://www.w3.org/2000/svg"><g clip-path="url(#clip0_448:425)" fill="#fff"><path d="M116.407 38.024c0-.708-.067-1.415-.199-2.123-.133-.708-.432-1.32-.863-1.898-.432-.547-1.063-1.03-1.892-1.383-.83-.354-1.926-.612-3.286-.676-.764 0-1.693.032-2.722.064a21.34 21.34 0 00-3.485.515v10.712h5.676a9.41 9.41 0 002.555-.353 6.236 6.236 0 002.125-1.062c.63-.45 1.095-1.03 1.493-1.64a5.808 5.808 0 00.598-2.156zm-6.008-9.554c3.12.193 5.444 1.126 6.97 2.83 1.527 1.706 2.291 3.99 2.291 6.917 0 1.19-.266 2.316-.797 3.346a8.634 8.634 0 01-2.191 2.702 10.054 10.054 0 01-3.219 1.801c-1.228.45-2.49.644-3.851.644h-5.676v7.077h-3.618V32.684a16.79 16.79 0 01-1.327-.129 5.771 5.771 0 01-1.228-.321v-3.378a15.164 15.164 0 003.32.386c.696 0 1.393-.032 2.09-.129.664-.064 1.361-.16 2.025-.225a25.11 25.11 0 012.091-.29 24.075 24.075 0 012.224-.096h.896v-.032zm23.999 8.17c-.863 0-1.66.097-2.456.322-.797.226-1.494.547-2.091.966-.631.418-1.129.965-1.527 1.608-.399.643-.631 1.448-.731 2.348l2.224-.096a12.86 12.86 0 001.726.096c.664 0 1.328.033 1.959.033.564 0 1.095-.033 1.659-.097a4.824 4.824 0 001.461-.386 2.838 2.838 0 001.029-.804c.265-.354.398-.772.398-1.32 0-.964-.365-1.64-1.095-2.026-.797-.45-1.627-.643-2.556-.643zm6.672 15.056c-.963.676-2.091 1.255-3.386 1.77-1.294.514-2.755.771-4.415.771-1.327 0-2.589-.193-3.717-.579-1.129-.386-2.124-.933-2.954-1.64-.83-.708-1.494-1.609-2.025-2.67-.498-1.062-.797-2.284-.83-3.635v-.193a9.217 9.217 0 01-1.328.096c-.464 0-.896.097-1.327.257v-3.635c.464-.128.929-.225 1.361-.225.431-.032.896-.064 1.361-.129a9.29 9.29 0 01.896-3.506 9.205 9.205 0 012.091-2.767c.863-.772 1.925-1.383 3.12-1.801 1.195-.418 2.556-.644 3.983-.644 1.56 0 2.987.322 4.249.998a6.98 6.98 0 012.39 2.187c.63.933.962 1.995.962 3.153 0 1.222-.431 2.38-1.261 3.442-.863 1.126-1.925 1.834-3.153 2.188a15.663 15.663 0 01-3.984.514 28.9 28.9 0 01-2.19-.096c-.83-.065-1.593-.065-2.291-.065-.199 0-.365 0-.531.033-.166.032-.332.032-.464.064v.193c0 1.576.531 2.767 1.626 3.57 1.095.805 2.423 1.223 4.05 1.223.829 0 1.593-.064 2.29-.193a12.887 12.887 0 001.992-.547c.63-.225 1.228-.514 1.792-.836a48.835 48.835 0 001.726-1.03v3.732h-.033zm22.903-17.886v19.946h-3.718V39.794l-10.987 13.994h-3.485V33.81h3.718v13.961l10.987-13.962h3.485zm23.864-.097v20.074h-3.784v-8.493h-10.588v8.493h-3.751V33.713h3.751v7.882h10.588v-7.882h3.784zm23.136 17.211c.863 0 1.66-.16 2.456-.514.797-.354 1.494-.805 2.058-1.384a6.602 6.602 0 001.428-2.059c.365-.772.531-1.608.531-2.509 0-.772-.166-1.544-.465-2.316-.299-.772-.73-1.448-1.261-2.091-.531-.611-1.195-1.094-1.992-1.48-.763-.386-1.659-.547-2.589-.547-.597 0-1.128.065-1.626.225-.465.161-.963.322-1.461.515V50.25c.863.45 1.826.675 2.921.675zm-15.8-6.466c0 .869.166 1.673.498 2.445a6.673 6.673 0 001.361 2.027 6.617 6.617 0 002.058 1.415 6.163 6.163 0 002.556.547 7.45 7.45 0 002.821-.547v-11.58a6.434 6.434 0 00-2.954-.709c-.863 0-1.659.161-2.423.515a7.24 7.24 0 00-2.025 1.384 6.43 6.43 0 00-1.36 2.058 5.69 5.69 0 00-.532 2.445zM214.193 35c1.029.322 1.958.773 2.788 1.384a9.795 9.795 0 012.158 2.187c.597.837 1.095 1.77 1.427 2.767.332.997.531 2.026.531 3.056a9.845 9.845 0 01-.763 3.796c-.498 1.222-1.229 2.284-2.125 3.249a9.886 9.886 0 01-3.219 2.252 9.696 9.696 0 01-3.984.836 7.359 7.359 0 01-1.493-.128 11.452 11.452 0 01-1.428-.322v6.627h-3.618v-6.595a8.82 8.82 0 01-1.394.29 10.63 10.63 0 01-1.427.096 9.273 9.273 0 01-3.85-.804c-1.228-.547-2.291-1.255-3.22-2.188a10.135 10.135 0 01-2.191-3.249 9.806 9.806 0 01-.83-3.924c0-.998.166-1.963.465-2.96.332-.997.764-1.898 1.394-2.734.598-.837 1.328-1.577 2.158-2.252a9.607 9.607 0 012.854-1.512 9.034 9.034 0 012.789-.45 8.56 8.56 0 011.56.128c.531.097 1.062.193 1.659.322v-5.147h3.618l-.033 5.179c.996-.29 1.992-.45 3.021-.45.929.128 1.991.257 3.153.546zm18.886 1.835c-.995 0-1.925.193-2.788.547a7.615 7.615 0 00-2.29 1.447c-.664.611-1.162 1.32-1.56 2.155-.398.837-.564 1.706-.564 2.67 0 .966.199 1.866.564 2.67a7.382 7.382 0 001.56 2.188 6.945 6.945 0 002.29 1.48 7.413 7.413 0 002.788.547c.996 0 1.926-.193 2.789-.547.863-.354 1.626-.836 2.257-1.48a6.933 6.933 0 001.527-2.187 6.54 6.54 0 00.564-2.67 6.54 6.54 0 00-.564-2.67 6.3 6.3 0 00-1.527-2.156 7.073 7.073 0 00-2.257-1.447 7.289 7.289 0 00-2.789-.547zm0 0c-.995 0-1.925.193-2.788.547a7.615 7.615 0 00-2.29 1.447c-.664.611-1.162 1.32-1.56 2.155-.398.837-.564 1.706-.564 2.67 0 .966.199 1.866.564 2.67a7.382 7.382 0 001.56 2.188 6.945 6.945 0 002.29 1.48 7.413 7.413 0 002.788.547c.996 0 1.926-.193 2.789-.547.863-.354 1.626-.836 2.257-1.48a6.933 6.933 0 001.527-2.187 6.54 6.54 0 00.564-2.67 6.54 6.54 0 00-.564-2.67 6.3 6.3 0 00-1.527-2.156 7.073 7.073 0 00-2.257-1.447 7.289 7.289 0 00-2.789-.547zm0 17.371c-1.526 0-2.921-.29-4.248-.836a10.985 10.985 0 01-3.486-2.284 10.85 10.85 0 01-2.356-3.346 10.043 10.043 0 01-.863-4.085c0-1.448.299-2.831.863-4.118.564-1.287 1.361-2.38 2.356-3.346.996-.965 2.158-1.705 3.486-2.284a11.093 11.093 0 014.248-.836c1.494 0 2.888.29 4.216.836a11.029 11.029 0 015.842 5.63c.564 1.287.863 2.638.863 4.118 0 1.447-.299 2.798-.863 4.085-.564 1.287-1.361 2.38-2.357 3.346-.996.965-2.157 1.705-3.485 2.284a10.933 10.933 0 01-4.216.836zm0 0c-1.526 0-2.921-.29-4.248-.836a10.985 10.985 0 01-3.486-2.284 10.85 10.85 0 01-2.356-3.346 10.043 10.043 0 01-.863-4.085c0-1.448.299-2.831.863-4.118.564-1.287 1.361-2.38 2.356-3.346.996-.965 2.158-1.705 3.486-2.284a11.093 11.093 0 014.248-.836c1.494 0 2.888.29 4.216.836a11.029 11.029 0 015.842 5.63c.564 1.287.863 2.638.863 4.118 0 1.447-.299 2.798-.863 4.085-.564 1.287-1.361 2.38-2.357 3.346-.996.965-2.157 1.705-3.485 2.284a10.933 10.933 0 01-4.216.836zM42.354 38.088h.199a14.294 14.294 0 002.357-.29c.199-.032.431-.096.63-.16.697-.193 1.395-.45 2.092-.772a12.622 12.622 0 006.14-6.08c-.033 0-.066.032-.1.032-.464.193-.929.418-1.36.675-.033.033-.067.065-.133.065-.465.257-.863.579-1.261.9-.432.58-.963 1.094-1.527 1.577a10.765 10.765 0 01-3.087 1.77l-.266.096c-.132.032-.298.096-.431.128l-.067.032c-.796.226-1.66.354-2.556.419h-.165c-.332.032-.698.032-1.063.032 0 .032.034.096.034.129.132.45.232.9.331 1.383 0 .032.034.064.034.096.066-.032.133-.032.199-.032zm-3.087-2.026c.232.643.432 1.286.564 1.962.033.129.033.257.067.386l.033.193c.133.804.2 1.544.2 2.284v.193a16.11 16.11 0 012.057-.16c0-.194 0-.387-.033-.612 0-.129 0-.257-.033-.386-.033-.354-.067-.74-.133-1.126l-.033-.16v-.033c-.034-.129-.034-.257-.067-.354-.133-.611-.265-1.222-.464-1.834-1.56-4.921-5.577-8.717-10.722-10.197.034.29.067.547.1.836 0 .065.033.161.033.225.067.386.166.74.266 1.126 3.95 1.416 6.837 4.118 8.165 7.657zm7.668 4.728v-.417l-.697.193c-.067 0-.1.032-.166.032l-.797.193v.418c.033.772.133 1.544.299 2.284.033.193.1.418.166.611.199.676.464 1.383.796 2.027a12.441 12.441 0 006.274 5.983c0-.032-.033-.064-.033-.096-.2-.45-.432-.9-.664-1.319a.241.241 0 01-.067-.129 10.561 10.561 0 00-.896-1.222 13.714 13.714 0 01-1.76-1.609 9.854 9.854 0 01-1.725-2.96l-.1-.257c-.033-.16-.1-.29-.132-.418l-.034-.064c-.232-.772-.365-1.609-.431-2.477v-.161c0-.129-.033-.354-.033-.611z"/><path d="M32.827 32.362a10.846 10.846 0 01-1.593-2.83l-.066-.258c-.067-.225-.166-.45-.233-.708v-.064a12.597 12.597 0 01-.431-2.445v-.16c-.033-.29-.033-.58-.033-.805 0-2.734 1.062-5.404 2.954-7.528 1.792-1.994 4.149-3.28 6.44-3.538a39.54 39.54 0 014.38-.225c1.528 0 2.69.096 3.254.128-.664-.482-2.49-1.608-5.544-1.608-.365 0-.763.032-1.161.064-4.913.45-11.75 4.665-11.75 12.74v.578c.032.837.099 1.577.232 2.252l.199.869v.064c.199.708.431 1.383.697 2.027 1.261 2.83 3.552 5.018 6.472 6.209 0-.033-.033-.065-.033-.097a11.837 11.837 0 00-.53-1.126c-.034-.032-.034-.064-.067-.129-.2-.386-.465-.74-.697-1.061l-.034-.032c-.896-.644-1.759-1.416-2.456-2.317zm17.892-.064c.929-.772 2.024-1.383 3.22-1.865l.265-.097c.232-.096.498-.16.73-.257h.033c.863-.258 1.726-.386 2.556-.483h.166c.365-.032.697-.032 1.03-.032 2.82 0 5.575 1.03 7.766 2.863 2.058 1.737 3.386 4.021 3.651 6.241.399 3.57.2 6.402.1 7.399.564-.74 1.925-2.863 1.593-6.498-.431-4.697-4.78-11.324-13.11-11.324-.167 0-.333 0-.499.032h-.265c-.863.032-1.627.129-2.324.258-.332.064-.697.16-.962.225-.73.193-1.428.45-2.125.74-2.788 1.222-4.88 3.313-6.107 5.983.1-.032.199-.096.332-.128.1-.033.199-.097.332-.13.166-.063.298-.16.464-.224.1-.065.2-.097.266-.161l.498-.29a.539.539 0 01.232-.128c.232-.161.465-.322.664-.515.398-.58.93-1.126 1.494-1.608zM33.658 49.862a11.596 11.596 0 01-3.12 1.705l-.266.097c-.232.096-.464.16-.73.225h-.066c-.83.225-1.693.386-2.556.45h-.166c-.299.033-.598.033-.896.033-2.822 0-5.577-1.03-7.767-2.864-2.058-1.737-3.386-4.02-3.652-6.24-.398-3.571-.199-6.402-.1-7.4-.563.74-1.924 2.864-1.592 6.499.498 4.729 4.846 11.356 13.177 11.356h.598c.863-.032 1.626-.097 2.323-.225.332-.065.63-.13.93-.226a13.6 13.6 0 002.124-.707c2.821-1.223 5.045-3.346 6.273-6.048-.033 0-.066.032-.1.032-.43.16-.83.354-1.228.547-.033.032-.066.032-.099.064-.398.225-.797.483-1.162.74h-.033c-.498.708-1.162 1.351-1.892 1.962zm-7.768-24.32h-.298c-6.008 0-10.522.933-13.477 1.544-1.493.29-2.423.515-4.315.611-1.859.033-5.111-.321-7.8-.61 2.888 2.219 4.547 2.187 7.502 2.315.464 0 .896 0 1.294-.032 1.228-.064 2.722-.354 4.481-.708 3.22-.61 7.27-1.383 11.983-1.286.298 0 .564.032.863.032v-.097c-.067-.547-.133-1.126-.133-1.672v-.097h-.1z"/><path d="M29.11 30.69a12.404 12.404 0 01-.664-1.963c-.1-.322-.133-.643-.2-.933a15.665 15.665 0 01-.265-2.22v-.225c0-.16-.033-.322-.033-.515 0-3.345 1.294-6.627 3.618-9.232 2.19-2.477 5.078-4.053 7.9-4.343 1.759-.193 3.585-.257 5.377-.257 1.992 0 3.452.096 4.083.16-.764-.579-3.054-2.026-6.904-2.026-.465 0-.963.032-1.428.064-5.974.515-14.405 5.726-14.405 15.634v.515c.033.708.066 1.383.166 2.091l.033.129.033.129c.033.225.066.482.1.707.1.58.265 1.126.431 1.705 1.527 4.986 5.344 8.654 10.423 10.07-.033-.29-.067-.58-.1-.837 0-.065 0-.161-.033-.258-.066-.386-.133-.74-.232-1.093-3.618-1.126-6.44-3.732-7.9-7.303zm-2.954-2.09h-.332c-4.946 0-8.697.578-11.186.964-3.552.547-6.074.9-9.26.611 2.721 1.287 3.85 1.19 6.903.998.93-.065 2.025-.225 3.286-.386 2.656-.354 6.008-.837 10.025-.772.332 0 .697.032 1.095.064 0-.032 0-.064-.033-.097-.133-.45-.233-.868-.332-1.286 0-.033-.033-.065-.033-.097h-.133zm19.252 17.403a11.937 11.937 0 01-.598-1.963c-.033-.128-.033-.257-.066-.386 0-.064-.033-.128-.033-.193-.133-.804-.2-1.544-.2-2.284v-.257l-.896.096h-.132a11.03 11.03 0 01-1.03.065c0 .193.034.418.034.643 0 .129 0 .258.033.386.033.354.066.74.133 1.126l.033.129v.064c0 .097.033.225.066.322.1.611.266 1.222.465 1.834 1.593 4.921 5.444 8.557 10.556 10.069a55.258 55.258 0 01-.1-.805c0-.096-.033-.193-.033-.29a14.537 14.537 0 00-.266-1.157c-3.85-1.351-6.638-3.99-7.966-7.4z"/><path d="M39.3 40.984v-.193a12.655 12.655 0 00-.298-2.284c-.033-.193-.1-.386-.166-.58a16.506 16.506 0 00-.73-2.026c-1.328-2.799-3.618-4.986-6.539-6.209.1.258.232.547.365.805.067.16.133.29.2.45.232.45.53.869.83 1.255.962.643 1.825 1.415 2.522 2.316a9.874 9.874 0 011.527 2.766l.1.226c.032.128.066.257.099.353l.033.097c.2.772.332 1.576.398 2.445v.225c0 .16.034.354.034.515 0 .128 0 .257-.034.386v.064c.034 0 .1-.032.133-.032.465-.129.93-.257 1.427-.322.033 0 .067-.032.1-.032v-.225zm18.82-15.86v-.321c0-5.823-.962-10.198-1.593-13.061-.299-1.448-.564-2.574-.598-3.41-.1-2.348.465-7.463.565-8.332-2.324 3.603-2.357 5.855-2.324 8.557.067 1.19.365 2.638.73 4.343.631 3.12 1.428 7.013 1.328 11.613 0 .322-.033.611-.033.933h.133a13.876 13.876 0 011.693-.129h.1v-.193zM31.732 53.658c-.73.29-1.394.515-2.058.676-.332.064-.63.129-.963.193a17.15 17.15 0 01-2.29.257h-.166c-.199 0-.398.032-.597.032-3.452 0-6.838-1.254-9.527-3.506-2.556-2.123-4.182-4.922-4.48-7.656a46.265 46.265 0 01-.1-9.169c-.664.837-2.456 3.507-2.025 8.075.531 5.79 5.908 13.962 16.132 13.962h.564c.73-.033 1.46-.065 2.157-.161l.133-.033h.1c.265-.032.498-.064.763-.096.598-.097 1.162-.257 1.793-.418 5.078-1.48 8.829-5.115 10.323-9.94l-.797.096c-.1 0-.232.032-.332.032-.398.064-.763.129-1.128.225-1.262 3.346-3.917 6.016-7.502 7.431zm21.012-25.317c.697-.29 1.394-.515 2.058-.675.332-.097.63-.13.962-.194a27.821 27.821 0 012.29-.289h.133c.266 0 .498-.032.764-.032 3.452 0 6.837 1.254 9.526 3.506 2.556 2.123 4.182 4.922 4.481 7.657.498 4.471.2 8.042.1 9.168.663-.837 2.456-3.507 2.024-8.075-.53-5.79-5.908-13.961-16.131-13.961-.133 0-.266 0-.432.032h-.299c-.73.032-1.46.096-2.157.193l-.133.032c-.265.032-.564.064-.83.129-.597.096-1.161.257-1.792.45-5.012 1.512-8.73 5.147-10.19 9.973.298-.032.564-.065.83-.097.1 0 .199-.032.298-.032.399-.064.764-.16 1.129-.257 1.261-3.41 3.85-6.08 7.369-7.528z"/><path d="M37.176 43.975a12.772 12.772 0 012.025-.547c.133-.032.266-.032.399-.064l.166-.032a15.03 15.03 0 012.356-.194h.233c-.034-.321-.1-.643-.1-.932v-.097c-.033-.322-.033-.643-.066-.965-.266 0-.498.032-.764.032h-.232c-.365.032-.764.064-1.162.129l-.133.032h-.066c-.133.032-.232.032-.365.064-.63.097-1.261.258-1.892.45-5.012 1.513-8.93 5.34-10.456 10.263.299-.032.564-.064.863-.097.067 0 .166-.032.232-.032.399-.064.797-.16 1.162-.257 1.46-3.732 4.249-6.498 7.8-7.753z"/><path d="M42.288 43.911h-.2c-.796.032-1.593.129-2.356.29a4.53 4.53 0 00-.63.16 13.69 13.69 0 00-2.092.74c-2.788 1.255-5.012 3.443-6.273 6.145.033 0 .066-.032.1-.032.43-.193.896-.386 1.294-.612.033-.032.066-.064.133-.064.431-.257.83-.515 1.194-.804 0 0 .034 0 .034-.032a10.996 10.996 0 011.925-1.963 9.613 9.613 0 012.157-1.254c.266-.129.532-.225.797-.322l.266-.096c.132-.033.298-.097.431-.13h.067a10.91 10.91 0 012.555-.385h.233c.332-.032.663-.032.995 0h.034c0-.032-.034-.097-.034-.129-.132-.482-.265-.933-.365-1.415 0-.033 0-.033-.033-.065-.1-.032-.166-.032-.232-.032zm12.68-18.433c0-.128.033-.29.033-.418 0-4.793-.597-8.428-.996-10.841-.199-1.126-.332-2.027-.365-2.702-.431-2.123-.232-5.598-.265-6.273-1.361 2.477-1.129 5.05-1.03 6.69.067.902.233 1.963.399 3.186.365 2.573.863 5.79.797 9.683 0 .354-.034.74-.067 1.19.033 0 .1-.032.133-.032.465-.129.896-.225 1.328-.322.033 0 .066 0 .066-.032-.033-.032-.033-.097-.033-.129zm-7.502 12.514c-.73.258-1.394.45-2.024.58-.133.032-.233.032-.366.064-.066 0-.132.032-.199.032-.796.129-1.56.193-2.356.225h-.2c.067.354.1.676.1.998v.064c.033.322.033.611.033.933.233 0 .465-.032.697-.032.133 0 .233 0 .365-.033.366-.032.764-.064 1.129-.128l.133-.032h.1c.099 0 .232-.033.331-.033.598-.096 1.195-.257 1.892-.482 5.046-1.577 8.796-5.308 10.323-10.262l-.797.096c-.1.032-.199.032-.298.032a6.81 6.81 0 00-1.162.29c-1.494 3.667-4.215 6.402-7.7 7.689zm11.186 18.433c.133 0 .232.032.365.032 6.008 0 10.522-.932 13.476-1.544 1.494-.29 2.39-.45 3.519-.579 2.688-.128 5.908-.064 8.597.547-2.258-1.77-4.548-2.316-7.502-2.316-.465 0-.896 0-1.295.032-1.228.064-2.721.354-4.48.708-3.054.579-6.905 1.319-11.353 1.319h-.63c-.299 0-.63-.032-.996-.065v.13c.066.546.133 1.093.133 1.672v.096c.066-.064.1-.032.166-.032zm-.73-2.959c-.1-.58-.266-1.126-.432-1.738-1.527-4.89-5.278-8.492-10.223-9.94.033.29.066.547.1.837 0 .096.033.193.033.257.066.386.165.74.265 1.094 3.485 1.222 6.24 3.763 7.7 7.206.3.707.532 1.35.698 1.994l.199.869v.064c.133.74.232 1.48.266 2.22v.193c0 .193.033.418.033.61 0 3.347-1.295 6.628-3.618 9.234-2.191 2.477-5.079 4.053-7.9 4.343-1.76.192-3.585.257-5.377.257-1.959 0-3.452-.129-4.083-.161.763.579 3.054 2.027 6.904 2.027.465 0 .962-.032 1.427-.065 5.975-.514 14.406-5.726 14.406-15.634v-.611c-.033-.708-.066-1.416-.166-2.091l-.033-.129v-.064c-.1-.258-.133-.515-.2-.772zm-31.568 3.378v.353c0 5.823.963 10.198 1.594 13.061.298 1.448.564 2.574.597 3.41.398 3.217-.465 7.464-.564 8.332 2.522-3.667 2.522-6.016 2.356-8.557-.066-1.19-.365-2.638-.73-4.343-.63-3.12-1.427-7.045-1.327-11.613 0-.322.033-.675.033-.965h-.133c-.564.064-1.129.096-1.693.129h-.1c-.033.096-.033.128-.033.193zm31.932-3.507c.166 0 .299.032.465.032 4.945 0 8.696-.579 11.186-.965 1.161-.193 2.09-.322 2.788-.354 2.357-.386 5.775-.225 6.473-.257-1.86-.676-1.826-.804-3.818-1.094-1.195 0-2.257.032-3.087.097-.929.064-2.024.225-3.286.386-2.655.354-6.008.804-10.024.772-.398 0-.797-.032-1.261-.065 0 .033.033.097.033.13.133.45.232.868.332 1.318 0 .032 0 .032.033.064.066-.064.133-.064.166-.064z"/><path d="M51.316 49.252c.763.9 1.394 1.93 1.859 3.088l.1.258c.099.225.165.482.232.708l.033.064c.232.836.398 1.673.465 2.477v.16c.033.323.033.612.033.901 0 2.735-1.063 5.405-2.954 7.528-1.793 1.995-4.15 3.281-6.44 3.539-1.46.16-2.92.225-4.381.225-1.527 0-2.689-.097-3.253-.129.664.483 2.49 1.609 5.543 1.609.365 0 .764-.032 1.162-.065 4.846-.418 11.684-4.632 11.684-12.706 0-.161 0-.29-.034-.45v-.226c-.033-.869-.1-1.576-.232-2.252a9.57 9.57 0 00-.232-.933c-.2-.74-.465-1.415-.764-2.09-1.261-2.735-3.385-4.794-6.174-5.984.034.096.067.193.133.29.033.096.1.224.133.32.066.162.166.29.232.42.067.096.1.192.166.289.1.16.2.321.299.45.033.064.1.16.133.225.166.225.332.418.498.643.63.45 1.228 1.03 1.759 1.641zm-21.808 7.269c0 .129-.033.29-.033.45 0 4.794.598 8.429.996 10.842.2 1.126.332 2.026.365 2.702.598 2.187.233 5.597.266 6.273 1.36-3.024 1.128-4.89 1.029-6.691-.067-.901-.233-1.963-.399-3.185-.365-2.574-.863-5.79-.796-9.683 0-.354.033-.74.066-1.19-.033 0-.066 0-.1.032-.464.128-.896.225-1.36.321-.034 0-.067.033-.1.033.066 0 .066.032.066.096z"/></g><defs><clipPath id="clip0_448:425"><path fill="#fff" d="M0 0h244v82H0z"/></clipPath></defs></svg>