<svg width="1600" height="1024" fill="none" xmlns="http://www.w3.org/2000/svg"><path fill-rule="evenodd" clip-rule="evenodd" d="M0 32.465l80.703-3.432C160.2 25.602 321.606 18.739 481.807 16.45c160.201-2.288 321.606 0 481.807 5.72 160.196 5.72 463.736 31.713 623.936 29.425C1747.75 49.307 1840.5 6.864 1920 0v129.847H0V32.465z" fill="#F9F9F9"/><path fill-rule="evenodd" clip-rule="evenodd" d="M0 60.458l80.703-5.322C160.2 49.813 321.606 39.168 481.807 35.62c160.201-3.549 321.606 0 481.807 8.87 59.266 3.282 138.136 10.866 222.116 18.941 143.04 13.754 300.88 28.93 401.82 26.695 101.48-2.248 175.89-29.481 237.01-51.851 35.37-12.947 66.3-24.265 95.44-28.167V981.42l-80.4 5.322c-79.2 5.322-240 15.967-399.6 19.517-159.6 3.55-320.4 0-480-8.872-36.547-2.031-73.156-4.342-109.8-6.654-123.38-7.787-247.147-15.598-370.2-12.862-159.6 3.549-320.4 24.838-399.6 35.488L0 1024V60.458z" fill="#fff"/></svg>