<svg width="1600" height="963" fill="none" xmlns="http://www.w3.org/2000/svg"><path fill-rule="evenodd" clip-rule="evenodd" d="M0 88.071l67-9.094c66-9.095 200-27.284 333-33.347 132.999-6.063 266.999 0 399.999 15.158C932.999 75.945 1067 100.197 1200 94.134c133-6.063 267-42.44 333-60.63l67-18.188v330.81H0V88.071z" fill="#EEE"/><path fill-rule="evenodd" clip-rule="evenodd" d="M0 142.031l67-17.754c66-17.754 200-53.261 333-65.097 133-11.836 267 0 400 29.59s267 76.933 400 65.097c133-11.835 267-82.851 333-118.359L1600 0v963H0V142.031z" fill="#fff"/></svg>