<svg width="1600" height="1014" fill="none" xmlns="http://www.w3.org/2000/svg"><path fill-rule="evenodd" clip-rule="evenodd" d="M1600 925.929l-67 9.094c-66 9.095-200 27.284-333 33.347-133 6.063-267.001 0-400.001-15.158C666.999 938.055 533 913.803 400 919.866c-133 6.063-267 42.441-333 60.629L0 998.684v-330.81h1600v258.055z" fill="#EEE"/><path fill-rule="evenodd" clip-rule="evenodd" d="M1600 864.447l-67 18.694c-66 18.694-200 56.082-333 68.545-133 12.463-267.001 0-400.001-31.157S533 839.521 400 851.984c-133 12.463-267 87.239-333 124.628L0 1014V0h1600v864.447z" fill="#fff"/></svg>