<svg width="1600" height="590" fill="none" xmlns="http://www.w3.org/2000/svg"><path fill-rule="evenodd" clip-rule="evenodd" d="M-124.995 65.242l80.4-6.851c79.2-6.851 240-20.554 399.599-25.121 159.6-4.568 320.4 0 479.999 11.418C994.603 56.108 1155.4 74.378 1315 69.81c159.6-4.568 320.4-31.973 399.6-45.675l80.4-13.703v249.214H-124.995V65.242zM1795 556.672l-80.4 3.441c-79.2 3.442-240 10.325-399.6 12.619-159.6 2.295-320.403 0-480.002-5.736-159.6-5.736-320.4-14.913-479.999-12.619-159.6 2.295-320.4 16.061-399.6 22.944L-125 584.204V459.017h1440l399.6.001h80.4v97.654z" fill="#FFD9B5"/><path fill-rule="evenodd" clip-rule="evenodd" d="M-124.994 111.659l80.4-13.957c79.2-13.957 239.999-41.872 399.599-51.177 159.599-9.305 320.399 0 479.999 23.262C994.603 93.05 1155.4 130.27 1315 120.964c159.6-9.305 320.4-65.134 399.6-93.05L1795 0v507.701H-124.994V111.659z" fill="#FE8F22"/><path fill-rule="evenodd" clip-rule="evenodd" d="M1795 533.406l-80.4 7.074c-79.2 7.074-240 21.223-399.6 25.939-159.6 4.716-320.403 0-480.002-11.791-159.6-11.79-320.4-30.655-479.999-25.939-159.6 4.716-320.4 33.014-399.6 47.162L-125 590V332.672h1920v200.734z" fill="#FE8F22"/></svg>