<svg width="375" height="1207" fill="none" xmlns="http://www.w3.org/2000/svg"><path fill-rule="evenodd" clip-rule="evenodd" d="M0 18.615l15.703-1.952c15.469-1.952 46.875-5.855 78.047-7.157 31.172-1.301 62.578 0 93.75 3.253 31.172 3.254 62.578 8.459 93.75 7.157 31.172-1.3 62.578-9.108 78.047-13.012L375 3v71H0V18.615zM374.997 1192.67l-15.703 1.47c-15.469 1.47-46.875 4.41-78.047 5.39-31.171.98-62.577 0-93.749-2.45-31.171-2.45-62.577-6.37-93.749-5.39-31.171.98-62.577 6.86-78.046 9.8L0 1204.43v-53.47h374.997v41.71z" fill="#FFD9B5"/><path fill-rule="evenodd" clip-rule="evenodd" d="M0 31.89l15.703-3.986c15.469-3.986 46.875-11.959 78.047-14.617 31.172-2.657 62.578 0 93.75 6.644 31.172 6.644 62.578 17.274 93.75 14.616 31.172-2.657 62.578-18.602 78.047-26.574L375 0v145H0V31.89zm374.997 1150.85l-15.703 3.02c-15.469 3.02-46.875 9.06-78.047 11.08-31.171 2.01-62.577 0-93.749-5.04-31.171-5.03-62.577-13.09-93.749-11.08-31.171 2.02-62.577 14.1-78.046 20.15L0 1206.91V1097h374.997v85.74z" fill="#FE8F22"/><path fill="#FE8F22" d="M0 142h375v1001H0z"/></svg>