<svg width="1600" height="590" fill="none" xmlns="http://www.w3.org/2000/svg"><path fill-rule="evenodd" clip-rule="evenodd" d="M.001 65.242l67-6.851c66-6.851 200-20.554 333-25.121C533 28.702 667 33.27 800 44.688c133 11.42 267 29.69 400 25.122 133-4.568 267-31.973 333-45.675l67-13.703v249.214H.001V65.242zM1600 556.672l-67 3.441c-66 3.442-200 10.325-333 12.619-133 2.295-267.002 0-400.002-5.736s-267-14.913-399.999-12.619c-133 2.295-267 16.061-333 22.944l-67 6.883V459.017H1200l333 .001h67v97.654z" fill="#FFD9B5"/><path fill-rule="evenodd" clip-rule="evenodd" d="M.001 111.659l67-13.957c66-13.957 200-41.872 333-51.177s267 0 400 23.262C933 93.05 1067 130.27 1200 120.964s267-65.134 333-93.05L1600 0v507.701H.001V111.659z" fill="#FE8F22"/><path fill-rule="evenodd" clip-rule="evenodd" d="M1600 533.406l-67 7.074c-66 7.074-200 21.223-333 25.939-133 4.716-267.002 0-400.002-11.791-133-11.79-267-30.655-400-25.939-132.999 4.716-266.999 33.014-333 47.162L-.001 590V332.672H1600v200.734z" fill="#FE8F22"/></svg>