<svg width="162" height="45" fill="none" xmlns="http://www.w3.org/2000/svg"><path d="M71.535 8.465c3.662 0 6.868 1.124 9.265 3.245l.27.24L76.965 15a8.68 8.68 0 00-5.208-1.622c-5.16 0-8.907 3.711-8.907 8.822 0 5.111 3.746 8.823 8.907 8.823a10.17 10.17 0 004.942-1.25l1.257-.722 3.706 2.75c-2.445 2.637-6.046 4.085-10.175 4.085-3.944 0-7.545-1.403-10.132-3.95a13.732 13.732 0 01-4-9.906 13.278 13.278 0 014.029-9.764c2.574-2.45 6.18-3.8 10.151-3.8zm62.891.378l-5.994 4.45h-8.343v6.53h12.226v4.45h-12.226v6.839h14.337v4.45h-20.065V8.842h20.065zm16.271 0c6.973 0 11.304 3.662 11.304 9.56 0 5.898-4.331 9.59-11.304 9.59H145.5v7.565h-5.744V8.843h10.941zm-41.327-.017l-5.995 4.462H92.253v5.967h6.965c6.329-.016 9.813 2.795 9.813 7.894 0 5.334-3.843 8.393-10.55 8.393H86.529V8.826h22.841zm-11.147 14.88h-5.97v7.39h5.97c3.533.016 5.326-1.2 5.326-3.687s-1.7-3.704-5.326-3.704zm52.353-10.418H145.5v10.255h5.076c3.674 0 5.688-1.822 5.688-5.127 0-3.306-2.018-5.128-5.688-5.128zM39.33 8.59a22.195 22.195 0 012.63 4.393L21.957 27.83l-8.358-5.276v-6.347l8.358 5.276L39.33 8.589zM5.072 22.107c0-.285.007-.568.02-.849l-5.064-.255A22.116 22.116 0 006.43 37.74l3.59-3.616a17.02 17.02 0 01-4.949-12.017zM21.954 5.106c.283 0 .564.01.843.024l.254-5.102C22.687.01 22.321 0 21.954 0 15.893 0 10.404 2.474 6.43 6.475l3.59 3.616c3.06-3.08 7.28-4.985 11.934-4.985zm.001 34.001c-.282 0-.563-.007-.843-.021l-.253 5.1c.363.018.729.028 1.096.028 6.062 0 11.551-2.474 15.525-6.475l-3.591-3.616c-3.059 3.076-7.279 4.984-11.934 4.984z" fill="#8F8F8F"/><path d="M31.475 8.072l4.27-3.168A21.763 21.763 0 0021.958 0v5.107a16.698 16.698 0 019.518 2.965zm12.433 14.035c0-1.352-.12-2.675-.352-3.962l-4.725 3.507c.003.151.007.302.007.453 0 4.991-2.149 9.488-5.562 12.6l3.408 3.794a22.116 22.116 0 007.224-16.392zM21.956 39.108c-4.956 0-9.421-2.163-12.512-5.6l-3.767 3.431c4.017 4.469 9.823 7.276 16.28 7.276v-5.107zM10.634 9.507L7.225 5.713A22.118 22.118 0 000 22.107h5.072a17.017 17.017 0 015.562-12.6z" fill="#8F8F8F"/></svg>