<svg width="209" height="28" fill="none" xmlns="http://www.w3.org/2000/svg"><path d="M19.732 27.104V7.76H31.15V.72H0v7.04h11.418v19.344h8.314zM42.792.72h-8.315v26.383h8.314V.72zm6.083 0v26.383h7.649V12.526l14.244 14.578h7.095V.72h-7.65v14.466L56.303.72h-7.427zm45.328 16.406l9.589 9.977h10.697l-13.357-13.746L113.991.72h-10.088l-9.7 9.92h-2.217V.722H83.95v26.383h8.037v-9.977h2.217zM131.026 0c-10.808 0-17.293 6.097-17.293 13.968 0 7.87 6.485 13.967 17.293 13.967 10.753 0 17.238-6.097 17.238-13.967C148.264 6.097 141.779 0 131.026 0zm0 21.505c-5.376 0-8.813-3.214-8.813-7.537 0-4.324 3.437-7.483 8.813-7.483 5.321 0 8.813 3.16 8.813 7.483 0 4.323-3.492 7.537-8.813 7.537zM178.743.721h-26.66v26.383h8.036v-9.201h17.46v-5.82h-17.46V7.427h18.624V.721zM209 .72h-26.66v26.383h8.037v-9.201h17.459v-5.82h-17.459V7.427H209V.721z" fill="#8F8F8F"/></svg>