<svg width="142" height="60" fill="none" xmlns="http://www.w3.org/2000/svg"><path fill-rule="evenodd" clip-rule="evenodd" d="M20.519 42.754c-5.538 0-8.058 1.545-9.052 4.779l-3.16 10.275h107.636c5.538 0 8.058-1.545 9.052-4.778l3.16-10.276H20.519zM33.477 28.42h-5.325c-8.308 0-2.273-17.856 4.721-17.856h8.413c1.35 0 3.728.251 4.9-3.126l1.81-5.246H36.458c-6.247 0-11.111 2.228-14.625 5.964-6.071 6.396-8.13 16.384-6.674 21.162 1.384 4.42 5.147 7.33 11.04 7.401l4.58.036h5.644l1.384-4.203c1.03-2.982-1.278-4.132-4.33-4.132zm64.822-7.401l1.74-5.713H81.472c-3.088 0-4.472.863-5.005 2.659l-1.74 5.712h18.567c3.088 0 4.473-.862 5.005-2.658zm-26.34 10.06l-1.74 5.712h18.567c3.052 0 4.472-.862 5.005-2.658l1.74-5.713H76.964c-3.053 0-4.438.862-5.005 2.659zM102.63 7.94l1.74-5.713H85.803c-3.088 0-4.472.863-5.005 2.659l-1.74 5.713h18.567c3.053 0 4.437-.863 5.005-2.66zM74.586 9.09C73.804 3.772 71 2.227 64.183 2.227H51.759l-7.242 21.45h4.58c2.733 0 4.117.035 5.573-3.917l3.017-9.197h4.616c3.94 0 3.053 4.994 1.065 9.844-1.776 4.275-4.864 8.048-8.592 8.048h-7.703c-3.089 0-4.508.862-5.077 2.659l-1.916 5.712h5.644l5.538-.036c4.899-.036 8.91-.395 13.597-4.67 4.97-4.563 10.72-16.276 9.727-23.03zm62.408-6.899h-10.756L116.12 13.078c-1.171 1.257-2.378 2.515-3.55 3.988h-.106l5.041-14.875h-8.769l-11.821 34.6h8.768l3.763-10.887 3.905-3.341 3.089 9.844c.958 3.054 1.952 4.383 4.082 4.383h6.71l-6.887-19.33 16.649-15.269z" fill="#8F8F8F"/><path d="M20.022 51.305v2.839H18.46v-7.869h3.089c.887 0 1.597.216 2.094.683.497.467.781 1.078.781 1.832 0 .755-.248 1.366-.78 1.833-.498.467-1.208.682-2.095.682h-1.527zm0-1.221h1.527c.426 0 .745-.108.994-.36.213-.251.32-.539.32-.898 0-.395-.107-.682-.32-.934-.213-.252-.568-.36-.994-.36h-1.527v2.552zm8.84 2.37h-2.734l-.532 1.69h-1.562l2.662-7.869h1.598l2.662 7.869h-1.562l-.532-1.69zm-2.343-1.257h1.952l-.958-3.09h-.036l-.958 3.09zm10.153-3.7h-3.444v1.545h1.35c.887 0 1.597.251 2.13.718.532.467.78 1.078.78 1.833 0 .754-.248 1.365-.78 1.832-.533.467-1.243.719-2.13.719h-2.983v-7.869h5.077v1.222zm-3.444 2.766v2.659h1.35c.425 0 .78-.144.993-.395a1.47 1.47 0 00.355-.97c0-.36-.107-.683-.355-.934-.248-.252-.568-.396-.994-.396h-1.349v.036zm11.573.647c0 .97-.284 1.76-.888 2.407-.603.647-1.384.934-2.342.934-.959 0-1.74-.323-2.343-.934-.604-.61-.888-1.437-.888-2.407v-1.401c0-.97.284-1.76.888-2.407.603-.647 1.384-.934 2.343-.934.958 0 1.739.323 2.343.934.603.61.922 1.437.922 2.407v1.401h-.035zm-1.562-1.401c0-.611-.142-1.114-.461-1.51-.32-.394-.71-.574-1.243-.574-.532 0-.958.18-1.242.575-.284.395-.426.898-.426 1.509v1.437c0 .61.142 1.15.425 1.509.285.395.71.575 1.243.575.533 0 .959-.18 1.243-.575.284-.395.461-.898.461-1.51V49.51zm7.952-2.012H48.99v6.647h-1.562v-6.647h-2.2v-1.222h5.928v1.222h.035zm4.508 4.958h-2.733l-.532 1.689h-1.562l2.662-7.869h1.598l2.662 7.869h-1.562l-.532-1.69zm-2.343-1.258h1.953l-.958-3.09h-.036l-.959 3.09zm9.976-.503h-3.23v2.228h3.763v1.222h-5.326v-7.869h5.325v1.222h-3.762v1.976h3.23v1.221zm3.515-4.419l1.988 5.785h.035l1.988-5.785h2.023v7.869H71.32v-2.336l.142-3.485h-.036l-2.094 5.82h-1.03l-2.059-5.784h-.035l.142 3.45v2.335h-1.563v-7.869h2.06zm10.224 7.869v-7.869h2.627c.923 0 1.633.18 2.13.54.496.358.78.897.78 1.616 0 .36-.106.683-.284.97-.177.287-.461.503-.816.647.462.108.817.323 1.065.646.249.324.355.719.355 1.15 0 .755-.248 1.33-.745 1.725-.498.395-1.172.575-2.095.575h-3.017zm1.561-4.563h1.136c.427 0 .746-.072.959-.252.213-.18.32-.431.32-.754 0-.36-.107-.647-.355-.79-.213-.18-.568-.252-.994-.252h-1.066v2.048zm0 1.077v2.264h1.42c.426 0 .71-.108.959-.287.249-.18.32-.468.32-.79 0-.396-.107-.684-.285-.9-.177-.215-.461-.287-.887-.287h-1.527zm11.325.79c.036.863-.213 1.546-.745 2.049-.533.503-1.243.754-2.202.754-.922 0-1.704-.287-2.272-.898-.567-.61-.887-1.401-.887-2.335v-1.545c0-.97.284-1.725.852-2.335.568-.611 1.313-.935 2.236-.935.959 0 1.705.252 2.237.755s.817 1.186.781 2.048v.036h-1.526c0-.503-.107-.898-.355-1.186-.249-.287-.64-.395-1.136-.395-.462 0-.852.18-1.101.575-.284.395-.426.862-.426 1.473v1.58c0 .611.142 1.078.426 1.474.284.395.674.575 1.171.575s.852-.144 1.066-.396c.248-.251.355-.646.355-1.185h1.526v-.108zm5.893-.754h-3.23v2.228h3.762v1.222h-5.325v-7.869h5.325v1.222H92.62v1.976h3.231v1.221zm6.568-3.197h-3.515v6.647h-1.562v-7.869h5.077v1.222zm7.206 8.587h-1.42v-1.94h-4.757v1.94h-1.42l-.106-3.162h.603c.284-.252.533-.61.746-1.15.213-.503.319-1.293.355-2.3l.213-3.233h5.041v6.647h.923l-.178 3.198zm-4.508-6.575a9.777 9.777 0 01-.284 2.012c-.142.575-.355 1.042-.604 1.401h3.053v-5.425h-2.023l-.142 2.012zm9.798 2.946h-2.734l-.532 1.689h-1.562l2.662-7.869h1.598l2.662 7.869h-1.562l-.532-1.69zm-2.343-1.258h1.952l-.958-3.09h-.036l-.958 3.09zm6.709.216h-1.562v-5.138h1.562v5.138zm0 2.73h-1.562v-1.365h1.562v1.366z" fill="#fff"/></svg>