<svg width="134" height="33" fill="none" xmlns="http://www.w3.org/2000/svg"><path fill-rule="evenodd" clip-rule="evenodd" d="M45.08.194c-2.487.105-4.593.262-4.68.35-.131.131 1.145 8.087 1.327 8.274.032.033 2.243-.073 4.913-.235 4.569-.278 14.234-.158 16.372.203.942.159.975.205 1.232 1.761l.263 1.598H49.736v8.399h14.678l-.189 1.693c-.104.932-.308 1.816-.454 1.965-.169.171-4.265.27-11.19.27H41.658l-.57 3.116c-.313 1.714-.637 3.5-.72 3.969l-.15.853 2.934.22c3.83.287 23.285.296 26.634.011l2.602-.22.7-2.349c1.074-3.594 1.267-4.464 1.682-7.585.834-6.283.257-12.989-1.689-19.596C72.43.674 72.344.537 71.546.392 70.155.14 49.951-.013 45.08.194zM.08.85c-.076.197-.102 7.36-.06 15.918l.078 15.56h11.361l.071-11.446.07-11.448h12.974l.07 11.448.071 11.447 5.749.073 5.748.073V.494H18.214C3.575.494.19.561.08.851zM79.943.675c-.099.1-.18 7.293-.18 15.986v15.804h11.361V20.273l2.097.002 2.096.002 4.599 6.085 4.599 6.084 7.012.01 7.013.01-.556-.61c-.305-.336-3.43-4.128-6.942-8.427l-6.387-7.817.742-.883c.407-.487 3.297-3.772 6.421-7.302 3.125-3.53 5.722-6.534 5.771-6.676.055-.157-2.427-.257-6.414-.257h-6.504l-4.677 5.958-4.677 5.957-2.096.003-2.097.004V.495h-5.5c-3.025 0-5.582.08-5.68.18z" fill="#8F8F8F"/><path d="M122.233.256l1.014-.106c1.775-.186 8.06-.204 9.351-.027l1.244.171.079 4.842.079 4.842h-11.767V.256zm0 32.41v-9.683h11.632v9.686l-.846.17c-1.089.218-8.447.214-9.772-.005l-1.014-.169z" fill="#8F8F8F"/></svg>