<svg width="59" height="71" fill="none" xmlns="http://www.w3.org/2000/svg"><g clip-path="url(#clip0_448:287)"><path d="M29.5 68.349c.599-.294 16.172-6.908 21.114-10.876 5.092-4.115 7.787-9.994 7.787-17.05V7.356l-.45-.147C45.524.594 30.1 1.035 29.352 1.035c-.6 0-16.024-.441-28.453 6.173l-.3.147V40.57c0 7.055 2.696 12.934 7.788 17.049 4.94 3.969 20.513 10.583 21.113 10.73z" fill="#8F8F8F"/><path d="M29.5 69.083S13.028 62.028 7.937 58.06C2.546 53.65 0 47.625 0 40.717V6.325C13.028-.583 29.5.005 29.5.005S45.972-.583 59 6.325V40.57c0 6.908-2.546 12.934-7.937 17.343-5.091 4.115-21.563 11.17-21.563 11.17zM2.396 40.717c0 6.467 2.396 11.758 7.038 15.432 4.193 3.38 16.622 8.818 20.066 10.288 3.444-1.47 16.023-7.055 20.066-10.288 4.642-3.674 7.038-9.112 7.038-15.432V6.913c-17.37-1.617-38.035-.735-54.208 13.962v19.842z" fill="#BBB"/><path d="M46.122 35.867c2.246 1.323 3.144 2.205 3.294 3.822 0 1.763-1.198 2.792-3.144 2.792-1.648 0-3.594-.882-4.942-2.058v4.704c1.647.881 3.594 1.616 5.69 1.616 5.092 0 7.487-3.527 7.487-6.76.15-2.94-.748-5.291-5.09-7.79-1.948-1.176-3.445-1.91-3.445-3.674s1.647-2.499 2.995-2.499c1.797 0 3.594 1.029 4.642 2.058v-4.41c-.898-.734-2.845-1.763-5.69-1.616-3.444.147-7.038 2.498-7.038 6.614.15 2.792 1.048 4.85 5.24 7.201zM28.452 46.45c.449.147 1.198.294 2.396.294 5.84 0 9.134-5.144 9.134-12.492 0-7.496-3.444-12.052-9.584-12.052-2.845 0-5.091.588-7.038 1.763v33.216h5.092V46.45zm0-19.988c.449-.147 1.198-.44 1.797-.44 2.995 0 4.192 2.35 4.192 8.083 0 5.585-1.497 8.23-4.492 8.23-.749 0-1.348-.147-1.647-.294v-15.58h.15zM12.728 46.743c3.145 0 5.84-.735 7.787-2.057V22.493h-5.241v19.253c-.599.441-1.348.588-2.396.588-2.396 0-2.695-2.204-2.695-3.527V22.493H4.942v16.02c0 5.438 2.695 8.23 7.786 8.23zM47.62 66.585v3.38h.6v-1.323h.149l.898 1.323h.75s-.9-1.323-1.05-1.47c.45-.147.75-.44.75-.881s-.3-1.03-1.198-1.03h-.899zm.899.44c.449 0 .599.295.599.442 0 .294-.15.588-.75.588h-.149v-1.03h.3z" fill="#fff"/><path d="M50.914 68.201c0 1.176-1.049 2.205-2.246 2.205-1.198 0-2.247-1.029-2.247-2.205 0-1.176 1.049-2.204 2.247-2.204 1.347 0 2.246 1.028 2.246 2.204zm-2.246-2.792c-1.498 0-2.846 1.175-2.846 2.792a2.817 2.817 0 002.846 2.793c1.497 0 2.845-1.176 2.845-2.793 0-1.47-1.348-2.792-2.845-2.792z" fill="#8F8F8F"/></g><defs><clipPath id="clip0_448:287"><path fill="#fff" d="M0 0h59v71H0z"/></clipPath></defs></svg>