<svg width="142" height="61" fill="none" xmlns="http://www.w3.org/2000/svg"><g clip-path="url(#clip0_448:163)" fill-rule="evenodd" clip-rule="evenodd" fill="#8F8F8F"><path d="M91.371 48.142c-2.584.738-5.95 1.045-8.836 1.045-7.514 0-12.443-3.996-12.443-11.313 0-6.947 4.628-11.436 11.36-11.436 1.504 0 3.127.185 4.088.677V17.03h5.831v31.111zm-5.83-15.863c-.902-.43-2.165-.676-3.607-.676-3.547 0-5.891 2.213-5.891 6.087 0 4.12 2.525 6.456 6.672 6.456.722 0 1.864 0 2.825-.246V32.28zm53.741 15.863c-2.585.738-5.951 1.045-8.897 1.045-7.454 0-12.443-3.996-12.443-11.313 0-6.947 4.628-11.436 11.361-11.436 1.563 0 3.126.185 4.088.677V17.03h5.891v31.111zm-5.891-15.863c-.902-.43-2.104-.676-3.547-.676-3.607 0-5.951 2.213-5.951 6.087 0 4.12 2.585 6.456 6.733 6.456.721 0 1.803 0 2.765-.246V32.28zm-32.822 0c.962-.43 2.344-.553 3.486-.553 3.607 0 6.072 2.09 6.072 5.84 0 4.428-2.765 6.457-6.432 6.518v5.103h.3c7.575 0 12.083-4.242 12.083-11.805 0-6.886-4.809-10.944-11.902-10.944-3.607 0-7.154.861-9.498 1.845v29.205h5.891V32.279zM48.571 12.234l.962 1.107.541-.307-1.503-.8zm-1.442-.798l1.863 2.213.661-.368-.721-.861-1.803-.984z"/><path d="M45.626 10.636l2.825 3.32.661-.368-1.623-1.968-1.863-.984z"/><path d="M44.183 9.837l3.727 4.427.661-.369-2.585-3.074-1.803-.984zm7.153 7.809l-.42.246.42.492v-.738z"/><path d="M42.74 9.038l4.63 5.533.66-.369-3.486-4.18-1.804-.984zm8.356 8.73l-.661.43.901 1.107v-1.168l-.24-.369z"/><path d="M41.237 8.24l5.59 6.64.722-.37-4.448-5.287-1.864-.984zm9.318 9.837l-.661.43 1.442 1.722V19.06l-.781-.983z"/><path d="M39.795 7.44l6.552 7.746.661-.368-5.41-6.395-1.803-.984zm10.219 11.005l-.661.369 1.983 2.398v-1.168l-1.322-1.599z"/><path d="M38.352 6.64l7.454 8.854.661-.369-6.312-7.5-1.803-.984zm11.12 12.113l-.66.369 2.524 3.012v-1.168l-1.863-2.213z"/><path d="M36.85 5.84l8.415 9.961.661-.369-7.213-8.607-1.864-.984zm12.082 13.22l-.661.369 3.065 3.627v-1.168l-2.404-2.828z"/><path d="M35.407 5.042l9.317 11.129.661-.43-8.175-9.715-1.803-.984zM48.39 19.368l-.661.369 3.606 4.304v-1.169l-2.945-3.504z"/><path d="M33.904 4.242l10.28 12.235.66-.43-9.077-10.821-1.863-.984zM47.91 19.675l-.721.369 4.148 4.918v-1.168l-3.427-4.12z"/><path d="M32.46 3.443l11.182 13.342.721-.43L34.324 4.427l-1.863-.984zm14.909 16.54l-.661.368 4.628 5.595v-1.23l-3.967-4.733z"/><path d="M31.018 2.644l12.143 14.448.661-.43-11-13.035-1.804-.983zm15.81 17.645l-.661.37 5.17 6.21V25.7l-4.509-5.41z"/><path d="M29.515 1.783L42.62 17.4l.661-.43L31.38 2.827l-1.864-1.045zm16.772 18.814l-.661.369 5.71 6.824v-1.168l-5.05-6.025z"/><path d="M28.073.984l14.006 16.724.661-.369-12.804-15.31L28.073.985zm17.673 19.921l-.661.369 6.251 7.501v-1.23l-5.59-6.64z"/><path d="M26.63.246l14.908 17.768.661-.369L28.433 1.23 26.63.246zM45.205 21.21l-.661.37 6.792 8.115v-1.168l-6.131-7.316z"/><path d="M25.668 0l15.329 18.322.661-.369L26.991.43l-.36-.184C26.328.06 26.028 0 25.667 0zm18.996 21.52l-.661.368 7.333 8.73v-1.167l-6.672-7.932z"/><path d="M25.668 0c-.24 0-.48.061-.721.123L40.456 18.63l.721-.37L25.85 0h-.18zm18.515 21.827l-.661.369 7.815 9.407v-1.23l-7.154-8.546z"/><path d="M25.127.061c-.12.062-.3.123-.36.184l-.361.185 15.569 18.506.661-.368L25.127.06zm18.515 22.073l-.661.43 8.355 9.96v-1.168l-7.694-9.222z"/><path d="M24.526.308l-.661.369 15.569 18.568.661-.37L24.526.309zm18.575 22.134l-.661.43 8.896 10.575V32.28l-8.235-9.837z"/><path d="M23.985.614l-.661.37 15.57 18.567.66-.369L23.985.614zM42.56 22.748l-.661.43 9.438 11.252v-1.168L42.56 22.748z"/><path d="M23.444.922l-.661.369 15.569 18.568.661-.37L23.444.923zM42.02 23.056l-.661.43 9.978 11.867v-1.168L42.02 23.056z"/><path d="M22.903 1.23l-.661.368L37.81 20.166l.661-.369L22.903 1.23zm18.575 22.134l-.661.43 10.52 12.481v-1.168l-9.86-11.743z"/><path d="M22.362 1.538l-.661.368 15.57 18.569.66-.37L22.362 1.539zm18.635 22.134l-.661.43 11 13.158v-1.17L40.997 23.67z"/><path d="M21.82 1.783l-.66.43 15.63 18.568.66-.369-15.63-18.63zM40.457 24.04l-.661.369 11.54 13.771v-1.168L40.456 24.04z"/><path d="M21.28 2.09l-.661.37 15.63 18.63.66-.37L21.28 2.09zm18.635 22.258l-.661.369 12.082 14.448v-1.23L39.915 24.349z"/><path d="M20.739 2.398l-.661.37 15.63 18.69.66-.43L20.74 2.398zm18.635 22.258l-.661.368 12.623 15.064V38.92L39.374 24.655z"/><path d="M20.198 2.705l-.661.369 15.629 18.691.661-.43-15.63-18.63zm18.635 22.257l-.661.37 13.164 15.677v-1.168L38.833 24.962z"/><path d="M19.657 3.013l-.662.369 15.63 18.69.661-.43-15.63-18.63zM38.292 25.27l-.661.369 13.705 16.354v-1.23L38.292 25.27z"/><path d="M19.116 3.32l-.661.37 15.63 18.69.66-.43-15.63-18.63zM37.81 25.577l-.661.37 14.186 16.969v-1.168L37.81 25.578z"/><path d="M18.575 3.566l-.721.369 15.75 18.752.66-.43-15.69-18.691zM37.27 25.884l-.661.37 14.727 17.584v-1.169L37.27 25.886z"/><path d="M18.034 3.874l-.721.368 15.81 18.814a.475.475 0 01.24-.245l.36-.246-15.69-18.691zm18.695 22.318l-.661.369 15.148 18.076c.06-.184.12-.369.12-.553v-.492l-14.607-17.4z"/><path d="M17.493 4.181l-.721.37 16.17 19.243v-.245c0-.185.12-.43.24-.615L17.492 4.18zM36.188 26.5l-.48.307c-.06 0-.121.062-.181.062l15.389 18.383a2.1 2.1 0 00.36-.738L36.188 26.5z"/><path d="M16.952 4.488l-.722.369 16.712 19.92v-1.23l-15.99-19.06zM34.505 26.56l15.99 19.12c.18-.122.36-.368.54-.552L35.648 26.806c-.24.123-.601.123-.842 0l-.3-.245z"/><path d="M16.41 4.795l-.72.37L49.954 45.99l.48-.247.181-.184-15.75-18.752h-.06l-1.382-.861c-.12-.062-.18-.185-.3-.308-.121-.184-.121-.307-.181-.43v-.676L16.41 4.795z"/><path d="M15.87 5.103l-.721.369 34.264 40.825.661-.369L15.87 5.103z"/><path d="M15.329 5.349l-.722.369 34.325 40.886.661-.369L15.329 5.35z"/><path d="M14.788 5.656l-.722.37 34.325 40.886.661-.37L14.788 5.657z"/><path d="M14.247 5.964l-.722.369L47.85 47.219l.661-.369L14.247 5.964z"/><path d="M13.646 6.272l-.662.369L47.31 47.589l.661-.43L13.645 6.272z"/><path d="M13.105 6.579l-.662.369 34.325 40.948.661-.43L13.105 6.578z"/><path d="M12.564 6.886l-.662.37 34.385 40.947.661-.43L12.564 6.886z"/><path d="M12.023 7.131l-.662.37L45.746 48.51l.661-.43L12.023 7.13z"/><path d="M11.482 7.44l-.662.368 34.385 41.01.661-.369L11.481 7.44z"/><path d="M10.94 7.747l-.66.369 16.71 19.92.542.37c.24.123.48.43.48.737v.062l16.652 19.92.661-.368-34.384-41.01z"/><path d="M10.4 8.055l-.662.369 15.69 18.752 1.983 1.107L10.4 8.055zm17.553 20.904c0 .062.06.123.06.185v1.045l16.11 19.244.661-.369L27.953 28.96z"/><path d="M9.858 8.361l-.66.37 14.667 17.522 1.984 1.107-15.99-19zm18.155 21.581v1.168l15.629 18.63.661-.369-16.29-19.429z"/><path d="M9.318 8.669l-.662.369L22.362 25.33l1.924 1.107L9.318 8.668zm18.695 22.195v1.23L43.1 50.047l.661-.368-15.75-18.815z"/><path d="M8.776 8.916l-.66.368L20.798 24.41l1.924 1.169L8.776 8.916zm19.237 22.933v1.168L42.56 50.355l.661-.368-15.208-18.138z"/><path d="M8.236 9.222l-.662.37 11.662 13.894 1.924 1.169L8.236 9.222zM28.013 32.77v1.169l14.006 16.723.661-.369L28.013 32.77z"/><path d="M7.695 9.53l-.662.369 10.64 12.727 1.924 1.107L7.695 9.53zm20.318 24.163v1.23L41.478 51.03l.661-.43-14.126-16.908z"/><path d="M7.153 9.837l-.66.37 9.617 11.497 1.924 1.107L7.154 9.837zm20.86 24.84v1.168l12.984 15.494.661-.43-13.646-16.232z"/><path d="M6.613 10.146l-.662.368 8.596 10.268 1.984 1.107-9.918-11.743zm21.4 25.454v1.168l12.443 14.879.661-.43L28.013 35.6z"/><path d="M6.071 10.452l-.66.369 7.573 9.038 1.984 1.168-8.897-10.575zm15.75 19.92l1.563 1.845v-.676c0-.123-.12-.308-.24-.37l-1.323-.799zm6.192 6.149v1.23l11.902 14.202.661-.43L28.013 36.52z"/><path d="M5.53 10.698l-.661.37 6.552 7.869 1.984 1.168-7.875-9.407zm14.728 18.753l3.126 3.689v-1.168l-1.142-1.353-1.984-1.168zm7.754 8.054v1.168l11.362 13.588.661-.369-12.023-14.387z"/><path d="M4.99 11.005l-.662.369 5.59 6.702 1.924 1.106-6.853-8.177zm13.705 17.584l4.689 5.534v-1.168l-2.705-3.26-1.984-1.106zm9.318 9.838v1.168l10.82 12.973.661-.37-11.481-13.771z"/><path d="M4.448 11.313l-.661.368 4.569 5.472 1.923 1.107-5.83-6.948zm12.744 16.354l6.192 7.378v-1.168l-4.268-5.103-1.924-1.107zm10.82 11.743v1.169l10.34 12.296.661-.368-11-13.096z"/><path d="M3.907 11.62l-.661.37 3.547 4.242 1.923 1.107-4.809-5.718zM15.63 26.747l7.755 9.222V34.8l-5.831-6.886-1.924-1.168zm12.383 13.587v1.169l9.799 11.681.661-.368-10.46-12.482z"/><path d="M3.366 11.928l-.661.37L5.23 15.31l1.923 1.168-3.787-4.55zm10.7 13.896l9.318 11.128v-1.168l-7.394-8.792-1.924-1.168zm13.946 15.432v1.168l9.258 11.067.661-.369-9.918-11.866z"/><path d="M2.825 12.234l-.661.37 1.503 1.782 1.984 1.169-2.826-3.32zm9.678 12.728l10.88 12.911v-1.168l-8.956-10.637-1.924-1.107zm15.51 17.276v1.169l8.716 10.39.661-.369-9.378-11.19z"/><path d="M2.284 12.481l-.721.37.54.676 1.985 1.106-1.804-2.152zm8.656 11.56l12.444 14.817v-1.23l-10.46-12.48-1.983-1.108zm17.072 19.12v1.169l8.176 9.837.661-.43-8.836-10.575z"/><path d="M1.743 12.79l-.42.245 1.202.676-.782-.922zm7.634 10.328L23.384 39.78v-1.168L11.36 24.286l-1.984-1.168zm18.636 20.966v1.23l7.694 9.161.661-.43-8.356-9.96z"/><path d="M7.875 22.196l15.509 18.506v-1.168L9.798 23.364l-1.923-1.168zm20.138 22.872v1.168l7.153 8.546.661-.43-7.814-9.284z"/><path d="M6.312 21.334l17.072 20.352v-1.23L8.235 22.44l-1.923-1.107zm21.7 24.655v1.169l6.613 7.931.661-.43-7.274-8.67z"/><path d="M4.749 20.413l18.635 22.195V41.44L6.672 21.52 4.75 20.412zm23.264 26.5v1.229l6.071 7.255.661-.37-6.732-8.115z"/><path d="M3.186 19.49l20.198 24.04v-1.167L5.11 20.659 3.186 19.49zm24.826 28.406v1.168l5.53 6.64.662-.368-6.192-7.44z"/><path d="M1.623 18.567l21.76 25.947v-1.169L3.548 19.735l-1.924-1.168zm26.39 30.25v1.169l5.05 6.025.66-.369-5.71-6.825z"/><path d="M.06 17.706l23.324 27.73v-1.169L2.044 18.813.06 17.706zM28.013 49.74v1.23l4.508 5.348.661-.369-5.17-6.21z"/><path d="M0 17.645v.861l23.384 27.852V45.19L.48 17.891 0 17.646zm28.013 33.079v.738c0 .122-.06.245-.12.307l4.087 4.857.661-.369-4.628-5.533z"/><path d="M0 18.261v1.23l23.384 27.852v-1.168L0 18.26zm27.953 33.386c-.06.246-.241.492-.421.553l-.06.062 3.967 4.672.661-.368-4.148-4.92z"/><path d="M0 19.244v1.168l23.384 27.852v-1.168L0 19.244zm27.592 32.894c0 .061 0 .061-.06.061l-.601.37 3.967 4.672.661-.369-3.967-4.734z"/><path d="M0 20.166v1.168l23.384 27.852v-1.168L0 20.166zm27.11 32.279l-.72.43 4.027 4.735.661-.43-3.967-4.735z"/><path d="M0 21.15v1.169L23.384 50.17v-1.169L0 21.15zm26.57 31.603l-.42.246c-.121.061-.241.061-.361.061l4.087 4.858.661-.43-3.967-4.735z"/><path d="M0 22.072v1.169l23.384 27.852v-1.169L0 22.072zm24.706 30.68l4.63 5.473.66-.43-4.027-4.735c-.06 0-.18.061-.24.061h-.06a.854.854 0 01-.422-.123l-.54-.245z"/><path d="M0 22.996v1.23l28.794 34.307.661-.43-4.328-5.165-1.322-.738c-.24-.123-.421-.43-.421-.738v-.614L0 22.996z"/><path d="M0 23.979v1.168L28.253 58.84l.661-.37L0 23.979z"/><path d="M0 24.9v1.169l27.712 33.078.661-.37L0 24.9z"/><path d="M0 25.824v1.23l27.231 32.401.661-.369L0 25.824z"/><path d="M0 26.807v1.168l26.69 31.787.661-.369L0 26.807z"/><path d="M0 27.729v1.168l26.089 31.11.541-.184.18-.123L0 27.728z"/><path d="M0 28.652v1.23l25.308 30.127h.36c.18 0 .36 0 .541-.062L0 28.652z"/><path d="M0 29.635v1.168l23.925 28.528.841.492c.18.123.481.185.722.185L0 29.635z"/><path d="M0 30.557v1.168l22.362 26.684 1.984 1.168L0 30.557z"/><path d="M0 31.541v1.168l20.8 24.778 1.983 1.168L0 31.541z"/><path d="M0 32.463v1.168l19.236 22.934 1.924 1.168L0 32.463z"/><path d="M0 33.386v1.168l17.673 21.09 1.924 1.168L0 33.386z"/><path d="M0 34.37v1.167L16.05 54.66l1.984 1.168L0 34.369z"/><path d="M0 35.291v1.169l14.487 17.277 1.984 1.168L0 35.29z"/><path d="M0 36.214v1.169l12.924 15.432 1.984 1.168L0 36.214z"/><path d="M0 37.197v1.168l11.361 13.527 1.984 1.168L0 37.197z"/><path d="M0 38.12v1.167L9.798 50.97l1.984 1.168L0 38.12z"/><path d="M0 39.042v1.23l8.235 9.776 1.924 1.168L0 39.042z"/><path d="M0 40.025v1.169l6.612 7.931 1.984 1.168L0 40.025z"/><path d="M0 40.947v1.168l5.05 6.087 1.983 1.107L0 40.947z"/><path d="M0 41.87v1.23l3.487 4.12 1.983 1.168L0 41.87z"/><path d="M0 42.853v1.169l1.924 2.275 1.983 1.168L0 42.853z"/><path d="M0 43.776v.307c0 .615.42 1.353.902 1.66l1.442.8L0 43.776z"/><path d="M.36 45.19c.121.124.181.247.301.308l-.3-.307z"/></g><defs><clipPath id="clip0_448:163"><path fill="#fff" d="M0 0h142v61H0z"/></clipPath></defs></svg>