<svg width="162" height="82" fill="none" xmlns="http://www.w3.org/2000/svg"><path d="M37.468 62.134c6.299 0 11.405-5.086 11.405-11.36 0-6.273-5.106-11.358-11.405-11.358-6.298 0-11.404 5.085-11.404 11.359 0 6.273 5.106 11.359 11.404 11.359zM16.05 56.046c2.923 0 5.293-2.36 5.293-5.271 0-2.912-2.37-5.272-5.292-5.272-2.923 0-5.293 2.36-5.293 5.272 0 2.91 2.37 5.27 5.293 5.27zm21.419-19.303c4.048 0 7.33-3.269 7.33-7.3 0-4.033-3.282-7.301-7.33-7.301-4.049 0-7.33 3.268-7.33 7.3s3.281 7.3 7.33 7.3zM16.05 38.772c5.174 0 9.368-4.177 9.368-9.33 0-5.153-4.194-9.33-9.367-9.33-5.174 0-9.368 4.177-9.368 9.33 0 5.153 4.194 9.33 9.368 9.33zm62.415 17.224h5.914L73.42 26.3h-4.298L58.165 55.996h5.939l2.087-5.667h10.187l2.087 5.667L67.831 45.85l3.453-9.33 3.454 9.33h-6.907l10.634 10.146zm20.573-20.293l-5.441 14.75-5.441-14.75H82.59l7.479 20.293H97.1l7.479-20.293h-5.54zm7.902 0h5.565v20.293h-5.565V35.703zm2.783-2.301a3.57 3.57 0 003.578-3.564 3.57 3.57 0 00-3.578-3.564 3.57 3.57 0 00-3.578 3.564 3.57 3.57 0 003.578 3.564zm22.386 6.781v-4.48h-6.659V30.11h-5.565v5.593h-4.398v4.48h4.398v8.736c0 4.504 2.261 7.498 8.025 7.498 2.236 0 4.174-.817 4.174-.817l-.67-4.38s-1.094.322-2.435.322c-1.64 0-3.553-.718-3.553-2.97v-8.39h6.683zm12.747 11.161c-3.106 0-5.616-2.45-5.616-5.47 0-3.019 2.51-5.469 5.616-5.469 3.105 0 5.615 2.45 5.615 5.47 0 3.019-2.51 5.469-5.615 5.469zm0-16.16c-6.013 0-10.908 4.751-10.908 10.616 0 5.866 4.895 10.617 10.908 10.617s10.907-4.751 10.907-10.617c0-5.865-4.894-10.616-10.907-10.616z" fill="#8F8F8F"/></svg>