<svg width="124" height="36" fill="none" xmlns="http://www.w3.org/2000/svg"><path d="M111.253 0H87.38c1.39 7.88 9.04 15.297 17.383 15.297h19.006c.231-.695.231-1.854.231-2.55C124 5.795 118.206 0 111.253 0zM89.465 16.689v19.237h11.588V25.728h10.198c5.563 0 10.43-3.94 12.053-9.04h-33.84zM48.673 0v35.694H58.87s2.55 0 3.94-2.55c6.953-13.675 9.04-17.847 9.04-17.847h1.39v20.396h11.59V0H74.632s-2.55.232-3.94 2.55c-5.795 11.82-9.04 17.846-9.04 17.846h-1.39V0h-11.59zM0 35.924V.231h11.589s3.245 0 5.099 5.099c4.635 13.443 5.099 15.297 5.099 15.297s.927-3.245 5.099-15.297c1.854-5.1 5.1-5.099 5.1-5.099h11.588v35.693H31.985V16.687h-1.39l-6.49 19.237h-5.1l-6.49-19.237h-1.39v19.237H0z" fill="#8F8F8F"/></svg>