<svg width="25" height="25" fill="none" xmlns="http://www.w3.org/2000/svg"><path d="M16.25 2.5h-7.5A6.25 6.25 0 002.5 8.75v7.5a6.25 6.25 0 006.25 6.25h7.5a6.25 6.25 0 006.25-6.25v-7.5a6.25 6.25 0 00-6.25-6.25zm4.375 13.75a4.38 4.38 0 01-4.375 4.375h-7.5a4.38 4.38 0 01-4.375-4.375v-7.5A4.38 4.38 0 018.75 4.375h7.5a4.38 4.38 0 014.375 4.375v7.5z" fill="#fff"/><path d="M12.5 7.5a5 5 0 100 10 5 5 0 000-10zm0 8.125A3.13 3.13 0 019.375 12.5 3.129 3.129 0 0112.5 9.375a3.129 3.129 0 013.125 3.125 3.13 3.13 0 01-3.125 3.125zM18.125 7.5a.625.625 0 100-1.25.625.625 0 000 1.25z" fill="#fff"/></svg>