<svg width="24" height="24" fill="none" xmlns="http://www.w3.org/2000/svg"><path d="M12 18a6 6 0 100-12 6 6 0 000 12zm0-10a4 4 0 110 8 4 4 0 010-8zm-1-5V2a1 1 0 012 0v1a1 1 0 01-2 0zm1 17a1 1 0 011 1v1a1 1 0 01-2 0v-1a1 1 0 011-1zm5.657-13.657a1 1 0 010-1.414l.707-.707a1 1 0 011.414 1.414l-.707.707a1 1 0 01-1.414 0zM6.343 17.657a1 1 0 010 1.414l-.707.707a1 1 0 01-1.414-1.414l.707-.707a1 1 0 011.414 0zM23 12a1 1 0 01-1 1h-1a1 1 0 010-2h1a1 1 0 011 1zM1 12a1 1 0 011-1h1a1 1 0 010 2H2a1 1 0 01-1-1zm18.071 5.657l.707.707a1 1 0 11-1.414 1.414l-.707-.707a1 1 0 011.414-1.414zM4.222 5.636a1 1 0 011.414-1.414l.707.707a1 1 0 11-1.414 1.414l-.707-.707z" fill="#FFC700"/></svg>