<svg width="24" height="24" fill="none" xmlns="http://www.w3.org/2000/svg"><path d="M1.858 12.99l5.267.752-2.906 3.633a1 1 0 001.055 1.587L11 17.326V21a1 1 0 002 0v-3.674l5.726 1.636a1 1 0 001.055-1.587l-2.906-3.633 5.267-.752a1 1 0 00.565-1.7L21 9.586V6a1 1 0 00-1.555-.832L15.87 7.55l1.078-3.235A1 1 0 0016 3h-1.586l-1.707-1.707a1 1 0 00-1.414 0L9.586 3H8a1 1 0 00-.948 1.316L8.13 7.55 4.555 5.168A1 1 0 003 6v3.586l-1.707 1.707a1 1 0 00.565 1.7v-.003zm2.849-2.283A1 1 0 005 10V7.868l4.445 2.964a1 1 0 001.5-1.148L9.388 5H10a1 1 0 00.707-.293L12 3.414l1.293 1.293A1 1 0 0014 5h.612l-1.56 4.684a1 1 0 001.5 1.148L19 7.868V10a1 1 0 00.293.707l.586.586-5.021.717a1 1 0 00-.639 1.615l2.043 2.553-3.988-1.14a1.02 1.02 0 00-.548 0l-3.988 1.14 2.043-2.553a1 1 0 00-.639-1.615l-5.021-.717.586-.586z" fill="#FE8F22"/></svg>