<svg width="24" height="24" fill="none" xmlns="http://www.w3.org/2000/svg"><path d="M3.707 21.707l2.967-2.967a7.534 7.534 0 004.2 1.23 8.89 8.89 0 006.332-2.763C21.02 13.4 21.958 3.509 22 3.09a1 1 0 00-.658-1.032A1.028 1.028 0 0020.91 2c-.419.038-10.3.976-14.117 4.789-3.569 3.573-3.214 8.068-1.533 10.537l-2.967 2.967a1 1 0 001.414 1.414zm4.5-13.5c2.584-2.583 8.956-3.7 11.65-4.063-.365 2.693-1.477 9.062-4.064 11.649C13 18.58 9.848 18.25 8.125 17.289l4.582-4.582a1 1 0 00-1.414-1.414l-4.581 4.58c-.961-1.722-1.292-4.88 1.495-7.666z" fill="#91BB16"/></svg>