<svg width="40" height="40" fill="none" xmlns="http://www.w3.org/2000/svg"><path d="M34.64 12.12c-.868-1.544-1.81-1.828-3.728-1.936-1.916-.13-6.734-.184-10.908-.184-4.182 0-9.002.054-10.916.182-1.914.11-2.858.392-3.734 1.938C4.46 13.662 4 16.318 4 20.994v.016c0 4.656.46 7.332 1.354 8.858.876 1.544 1.818 1.824 3.732 1.954 1.916.112 6.736.178 10.918.178 4.174 0 8.992-.066 10.91-.176 1.918-.13 2.86-.41 3.728-1.954.902-1.526 1.358-4.202 1.358-8.858v-.016c0-4.678-.456-7.334-1.36-8.876zM16 27V15l10 6-10 6z" fill="#FE8F22"/></svg>