<svg width="25" height="25" fill="none" xmlns="http://www.w3.org/2000/svg"><path d="M21.65 7.575c-.542-.965-1.131-1.142-2.33-1.21-1.198-.081-4.209-.115-6.818-.115-2.613 0-5.626.034-6.822.114-1.196.069-1.786.245-2.334 1.211-.558.964-.846 2.624-.846 5.546v.01c0 2.91.288 4.583.846 5.537.548.965 1.136 1.14 2.333 1.22 1.197.07 4.21.112 6.823.112 2.61 0 5.62-.041 6.82-.11 1.198-.081 1.787-.256 2.33-1.221.563-.954.848-2.627.848-5.537v-.009c0-2.924-.285-4.584-.85-5.548zM10 16.875v-7.5l6.25 3.75-6.25 3.75z" fill="#fff"/></svg>