<svg width="24" height="24" fill="none" xmlns="http://www.w3.org/2000/svg"><path d="M23 12a1 1 0 01-1 1h-3.586l2.293 2.293a1 1 0 01-1.414 1.414L15.586 13H13v2.586l3.707 3.707a1 1 0 01-1.414 1.414L13 18.414V22a1 1 0 01-2 0v-3.586l-2.293 2.293a1 1 0 11-1.414-1.414L11 15.586V13H8.414l-3.707 3.707a1 1 0 01-1.414-1.414L5.586 13H2a1 1 0 010-2h3.586L3.293 8.707a1 1 0 111.414-1.414L8.414 11H11V8.414L7.293 4.707a1 1 0 111.414-1.414L11 5.586V2a1 1 0 012 0v3.586l2.293-2.293a1 1 0 111.414 1.414L13 8.414V11h2.586l3.707-3.707a1 1 0 111.414 1.414L18.414 11H22a1 1 0 011 1z" fill="#22BDED"/></svg>